<?xml version="1.0" standalone="no"?>
<!DOCTYPE svg PUBLIC "-//W3C//DTD SVG 20010904//EN"
 "http://www.w3.org/TR/2001/REC-SVG-20010904/DTD/svg10.dtd">
<svg version="1.0" xmlns="http://www.w3.org/2000/svg"
 width="500.000000pt" height="500.000000pt" viewBox="0 0 500.000000 500.000000"
 preserveAspectRatio="xMidYMid meet">
<metadata>
Created by potrace 1.14, written by Peter Selinger 2001-2017
</metadata>
<g transform="translate(0.000000,500.000000) scale(0.100000,-0.100000)"
fill="#000000" stroke="none">
<path d="M3598 4863 c6 -2 18 -2 25 0 6 3 1 5 -13 5 -14 0 -19 -2 -12 -5z"/>
<path d="M3668 4863 c6 -2 18 -2 25 0 6 3 1 5 -13 5 -14 0 -19 -2 -12 -5z"/>
<path d="M3753 4853 c9 -2 23 -2 30 0 6 3 -1 5 -18 5 -16 0 -22 -2 -12 -5z"/>
<path d="M3460 4846 c0 -2 7 -7 16 -10 8 -3 12 -2 9 4 -6 10 -25 14 -25 6z"/>
<path d="M3578 4843 c6 -2 18 -2 25 0 6 3 1 5 -13 5 -14 0 -19 -2 -12 -5z"/>
<path d="M3648 4843 c6 -2 18 -2 25 0 6 3 1 5 -13 5 -14 0 -19 -2 -12 -5z"/>
<path d="M3818 4843 c7 -3 16 -2 19 1 4 3 -2 6 -13 5 -11 0 -14 -3 -6 -6z"/>
<path d="M3748 4833 c7 -3 16 -2 19 1 4 3 -2 6 -13 5 -11 0 -14 -3 -6 -6z"/>
<path d="M3858 4833 c7 -3 16 -2 19 1 4 3 -2 6 -13 5 -11 0 -14 -3 -6 -6z"/>
<path d="M3375 4820 c3 -5 14 -10 23 -10 15 0 15 2 2 10 -20 13 -33 13 -25 0z"/>
<path d="M3438 4823 c7 -3 16 -2 19 1 4 3 -2 6 -13 5 -11 0 -14 -3 -6 -6z"/>
<path d="M3788 4823 c6 -2 18 -2 25 0 6 3 1 5 -13 5 -14 0 -19 -2 -12 -5z"/>
<path d="M3905 4820 c27 -12 43 -12 25 0 -8 5 -22 9 -30 9 -10 0 -8 -3 5 -9z"/>
<path d="M3345 4810 c3 -5 11 -10 16 -10 6 0 7 5 4 10 -3 6 -11 10 -16 10 -6
0 -7 -4 -4 -10z"/>
<path d="M3558 4813 c6 -2 18 -2 25 0 6 3 1 5 -13 5 -14 0 -19 -2 -12 -5z"/>
<path d="M3618 4813 c6 -2 18 -2 25 0 6 3 1 5 -13 5 -14 0 -19 -2 -12 -5z"/>
<path d="M3879 4799 c30 -10 56 -17 58 -15 5 5 -86 36 -101 35 -6 0 13 -9 43
-20z"/>
<path d="M3305 4800 c27 -12 43 -12 25 0 -8 5 -22 9 -30 9 -10 0 -8 -3 5 -9z"/>
<path d="M3738 4803 c6 -2 18 -2 25 0 6 3 1 5 -13 5 -14 0 -19 -2 -12 -5z"/>
<path d="M3960 4800 c8 -5 20 -10 25 -10 6 0 3 5 -5 10 -8 5 -19 10 -25 10 -5
0 -3 -5 5 -10z"/>
<path d="M3266 4791 c5 -5 23 -12 39 -16 30 -6 30 -6 -4 10 -38 17 -49 19 -35
6z"/>
<path d="M3388 4793 c7 -3 16 -2 19 1 4 3 -2 6 -13 5 -11 0 -14 -3 -6 -6z"/>
<path d="M3788 4793 c7 -3 16 -2 19 1 4 3 -2 6 -13 5 -11 0 -14 -3 -6 -6z"/>
<path d="M3237 4779 c7 -7 15 -10 18 -7 3 3 -2 9 -12 12 -14 6 -15 5 -6 -5z"/>
<path d="M3528 4783 c6 -2 18 -2 25 0 6 3 1 5 -13 5 -14 0 -19 -2 -12 -5z"/>
<path d="M3578 4783 c6 -2 18 -2 25 0 6 3 1 5 -13 5 -14 0 -19 -2 -12 -5z"/>
<path d="M3638 4783 c6 -2 18 -2 25 0 6 3 1 5 -13 5 -14 0 -19 -2 -12 -5z"/>
<path d="M3850 4775 c46 -18 64 -17 25 0 -16 8 -37 14 -45 14 -8 0 1 -7 20
-14z"/>
<path d="M3185 4770 c-4 -6 -10 -8 -15 -5 -4 3 -7 -3 -6 -12 2 -9 9 -19 17
-21 12 -3 12 -2 0 6 -8 6 -9 12 -3 16 6 3 13 2 17 -4 3 -5 12 -10 18 -10 7 0
4 5 -6 11 -9 6 -15 14 -12 20 4 5 4 9 1 9 -3 0 -8 -5 -11 -10z"/>
<path d="M3698 4773 c6 -2 18 -2 25 0 6 3 1 5 -13 5 -14 0 -19 -2 -12 -5z"/>
<path d="M3951 4776 c10 -9 89 -46 89 -41 0 5 -75 45 -86 45 -4 0 -5 -2 -3 -4z"/>
<path d="M3358 4763 c7 -3 16 -2 19 1 4 3 -2 6 -13 5 -11 0 -14 -3 -6 -6z"/>
<path d="M3765 4760 c11 -5 27 -9 35 -9 9 0 8 4 -5 9 -11 5 -27 9 -35 9 -9 0
-8 -4 5 -9z"/>
<path d="M3238 4753 c7 -3 16 -2 19 1 4 3 -2 6 -13 5 -11 0 -14 -3 -6 -6z"/>
<path d="M3318 4753 c7 -3 16 -2 19 1 4 3 -2 6 -13 5 -11 0 -14 -3 -6 -6z"/>
<path d="M3488 4753 c7 -3 16 -2 19 1 4 3 -2 6 -13 5 -11 0 -14 -3 -6 -6z"/>
<path d="M3558 4753 c6 -2 18 -2 25 0 6 3 1 5 -13 5 -14 0 -19 -2 -12 -5z"/>
<path d="M3911 4756 c10 -9 109 -56 109 -51 0 5 -95 55 -106 55 -4 0 -5 -2 -3
-4z"/>
<path d="M4060 4756 c0 -3 9 -10 20 -16 11 -6 20 -8 20 -6 0 3 -9 10 -20 16
-11 6 -20 8 -20 6z"/>
<path d="M3114 4735 c13 -10 15 -15 6 -15 -7 0 -11 -3 -7 -6 3 -3 11 -3 17 1
13 8 -5 35 -24 35 -6 0 -2 -7 8 -15z"/>
<path d="M3348 4733 c7 -3 16 -2 19 1 4 3 -2 6 -13 5 -11 0 -14 -3 -6 -6z"/>
<path d="M3698 4733 c7 -3 16 -2 19 1 4 3 -2 6 -13 5 -11 0 -14 -3 -6 -6z"/>
<path d="M3860 4730 c8 -5 20 -10 25 -10 6 0 3 5 -5 10 -8 5 -19 10 -25 10 -5
0 -3 -5 5 -10z"/>
<path d="M3030 4720 c-13 -9 -13 -11 0 -20 18 -12 28 -12 55 0 17 8 15 9 -10
7 -20 -1 -29 2 -27 11 2 14 1 15 -18 2z"/>
<path d="M3738 4723 c7 -3 16 -2 19 1 4 3 -2 6 -13 5 -11 0 -14 -3 -6 -6z"/>
<path d="M3488 4713 c7 -3 16 -2 19 1 4 3 -2 6 -13 5 -11 0 -14 -3 -6 -6z"/>
<path d="M2995 4700 c3 -5 8 -10 11 -10 2 0 4 5 4 10 0 6 -5 10 -11 10 -5 0
-7 -4 -4 -10z"/>
<path d="M3228 4703 c7 -3 16 -2 19 1 4 3 -2 6 -13 5 -11 0 -14 -3 -6 -6z"/>
<path d="M3603 4703 c9 -2 23 -2 30 0 6 3 -1 5 -18 5 -16 0 -22 -2 -12 -5z"/>
<path d="M3810 4700 c8 -5 20 -10 25 -10 6 0 3 5 -5 10 -8 5 -19 10 -25 10 -5
0 -3 -5 5 -10z"/>
<path d="M4140 4707 c0 -2 19 -19 43 -37 23 -19 36 -26 28 -17 -15 19 -71 61
-71 54z"/>
<path d="M2970 4691 c0 -9 30 -24 36 -18 2 1 -6 8 -16 15 -11 7 -20 8 -20 3z"/>
<path d="M3308 4693 c7 -3 16 -2 19 1 4 3 -2 6 -13 5 -11 0 -14 -3 -6 -6z"/>
<path d="M3710 4680 c36 -10 66 -17 68 -15 5 5 -98 35 -117 34 -9 0 13 -9 49
-19z"/>
<path d="M4100 4696 c0 -2 8 -10 18 -17 15 -13 16 -12 3 4 -13 16 -21 21 -21
13z"/>
<path d="M3851 4686 c10 -9 69 -36 69 -32 0 6 -55 36 -66 36 -4 0 -5 -2 -3 -4z"/>
<path d="M3960 4686 c0 -3 9 -10 20 -16 11 -6 20 -8 20 -6 0 3 -9 10 -20 16
-11 6 -20 8 -20 6z"/>
<path d="M3228 4673 c7 -3 16 -2 19 1 4 3 -2 6 -13 5 -11 0 -14 -3 -6 -6z"/>
<path d="M3558 4663 c7 -3 16 -2 19 1 4 3 -2 6 -13 5 -11 0 -14 -3 -6 -6z"/>
<path d="M4155 4650 c10 -11 20 -20 23 -20 3 0 -3 9 -13 20 -10 11 -20 20 -23
20 -3 0 3 -9 13 -20z"/>
<path d="M2907 4649 c7 -7 15 -10 18 -7 3 3 -2 9 -12 12 -14 6 -15 5 -6 -5z"/>
<path d="M3620 4650 c34 -11 60 -11 35 0 -11 5 -29 8 -40 8 -16 0 -15 -2 5 -8z"/>
<path d="M3791 4656 c10 -9 89 -46 89 -41 0 5 -75 45 -86 45 -4 0 -5 -2 -3 -4z"/>
<path d="M4100 4649 c8 -8 51 -49 95 -89 68 -63 72 -66 25 -16 -30 31 -73 71
-95 89 -22 17 -33 24 -25 16z"/>
<path d="M3238 4643 c7 -3 16 -2 19 1 4 3 -2 6 -13 5 -11 0 -14 -3 -6 -6z"/>
<path d="M3075 4630 c-3 -6 1 -7 9 -4 18 7 21 14 7 14 -6 0 -13 -4 -16 -10z"/>
<path d="M3695 4630 c27 -12 43 -12 25 0 -8 5 -22 9 -30 9 -10 0 -8 -3 5 -9z"/>
<path d="M4095 4588 c33 -32 63 -57 67 -58 8 0 -75 77 -107 100 -11 8 7 -11
40 -42z"/>
<path d="M4290 4573 c35 -40 66 -73 68 -73 7 0 -74 94 -104 120 -15 14 1 -8
36 -47z"/>
<path d="M3403 4623 c9 -2 23 -2 30 0 6 3 -1 5 -18 5 -16 0 -22 -2 -12 -5z"/>
<path d="M4244 4570 c84 -93 106 -113 59 -55 -23 28 -58 66 -79 85 -21 19 -12
6 20 -30z"/>
<path d="M2935 4610 c-3 -6 1 -7 9 -4 18 7 21 14 7 14 -6 0 -13 -4 -16 -10z"/>
<path d="M3528 4613 c6 -2 18 -2 25 0 6 3 1 5 -13 5 -14 0 -19 -2 -12 -5z"/>
<path d="M3741 4616 c10 -9 109 -56 109 -51 0 5 -95 55 -106 55 -4 0 -5 -2 -3
-4z"/>
<path d="M3980 4617 c0 -3 17 -17 37 -33 20 -15 33 -23 29 -16 -8 13 -66 56
-66 49z"/>
<path d="M3228 4603 c7 -3 16 -2 19 1 4 3 -2 6 -13 5 -11 0 -14 -3 -6 -6z"/>
<path d="M3578 4603 c7 -3 16 -2 19 1 4 3 -2 6 -13 5 -11 0 -14 -3 -6 -6z"/>
<path d="M2745 4580 c10 -11 20 -20 23 -20 3 0 -3 9 -13 20 -10 11 -20 20 -23
20 -3 0 3 -9 13 -20z"/>
<path d="M3188 4593 c7 -3 16 -2 19 1 4 3 -2 6 -13 5 -11 0 -14 -3 -6 -6z"/>
<path d="M3618 4593 c7 -3 16 -2 19 1 4 3 -2 6 -13 5 -11 0 -14 -3 -6 -6z"/>
<path d="M3148 4583 c7 -3 16 -2 19 1 4 3 -2 6 -13 5 -11 0 -14 -3 -6 -6z"/>
<path d="M3689 4569 c24 -11 46 -18 48 -15 4 4 -73 36 -85 35 -4 0 13 -9 37
-20z"/>
<path d="M3368 4573 c7 -3 16 -2 19 1 4 3 -2 6 -13 5 -11 0 -14 -3 -6 -6z"/>
<path d="M2950 4560 c-8 -5 -10 -10 -5 -10 6 0 17 5 25 10 8 5 11 10 5 10 -5
0 -17 -5 -25 -10z"/>
<path d="M3078 4563 c7 -3 16 -2 19 1 4 3 -2 6 -13 5 -11 0 -14 -3 -6 -6z"/>
<path d="M3188 4553 c7 -3 16 -2 19 1 4 3 -2 6 -13 5 -11 0 -14 -3 -6 -6z"/>
<path d="M3985 4540 c10 -11 20 -20 23 -20 3 0 -3 9 -13 20 -10 11 -20 20 -23
20 -3 0 3 -9 13 -20z"/>
<path d="M4120 4495 c88 -96 98 -106 63 -60 -17 22 -53 60 -79 85 -37 34 -34
29 16 -25z"/>
<path d="M3148 4543 c7 -3 16 -2 19 1 4 3 -2 6 -13 5 -11 0 -14 -3 -6 -6z"/>
<path d="M3108 4533 c7 -3 16 -2 19 1 4 3 -2 6 -13 5 -11 0 -14 -3 -6 -6z"/>
<path d="M3629 4525 c18 -8 36 -15 40 -15 13 1 -45 29 -59 29 -8 0 0 -6 19
-14z"/>
<path d="M3770 4536 c0 -2 16 -13 36 -25 19 -12 32 -16 29 -11 -7 11 -65 43
-65 36z"/>
<path d="M3920 4514 c44 -35 146 -137 189 -189 30 -37 31 -37 10 -5 -29 45
-178 194 -210 210 -15 7 -11 1 11 -16z"/>
<path d="M3038 4513 c7 -3 16 -2 19 1 4 3 -2 6 -13 5 -11 0 -14 -3 -6 -6z"/>
<path d="M3218 4513 c7 -3 16 -2 19 1 4 3 -2 6 -13 5 -11 0 -14 -3 -6 -6z"/>
<path d="M4065 4470 c27 -27 51 -50 54 -50 3 0 -17 23 -44 50 -27 28 -51 50
-54 50 -3 0 17 -22 44 -50z"/>
<path d="M4200 4485 c19 -19 36 -35 39 -35 3 0 -10 16 -29 35 -19 19 -36 35
-39 35 -3 0 10 -16 29 -35z"/>
<path d="M3118 4493 c7 -3 16 -2 19 1 4 3 -2 6 -13 5 -11 0 -14 -3 -6 -6z"/>
<path d="M3700 4496 c0 -2 7 -7 16 -10 8 -3 12 -2 9 4 -6 10 -25 14 -25 6z"/>
<path d="M3078 4483 c7 -3 16 -2 19 1 4 3 -2 6 -13 5 -11 0 -14 -3 -6 -6z"/>
<path d="M3560 4480 c8 -5 20 -10 25 -10 6 0 3 5 -5 10 -8 5 -19 10 -25 10 -5
0 -3 -5 5 -10z"/>
<path d="M3850 4487 c0 -2 19 -19 43 -37 23 -19 36 -26 28 -17 -15 19 -71 61
-71 54z"/>
<path d="M4360 4486 c0 -2 8 -10 18 -17 15 -13 16 -12 3 4 -13 16 -21 21 -21
13z"/>
<path d="M3740 4476 c0 -3 9 -10 20 -16 11 -6 20 -8 20 -6 0 3 -9 10 -20 16
-11 6 -20 8 -20 6z"/>
<path d="M4270 4476 c0 -2 8 -10 18 -17 15 -13 16 -12 3 4 -13 16 -21 21 -21
13z"/>
<path d="M3273 4463 c9 -2 23 -2 30 0 6 3 -1 5 -18 5 -16 0 -22 -2 -12 -5z"/>
<path d="M3610 4460 c8 -5 20 -10 25 -10 6 0 3 5 -5 10 -8 5 -19 10 -25 10 -5
0 -3 -5 5 -10z"/>
<path d="M3388 4453 c6 -2 18 -2 25 0 6 3 1 5 -13 5 -14 0 -19 -2 -12 -5z"/>
<path d="M2580 4435 c-14 -8 -20 -14 -14 -15 5 0 19 7 30 15 24 18 16 19 -16
0z"/>
<path d="M3448 4443 c7 -3 16 -2 19 1 4 3 -2 6 -13 5 -11 0 -14 -3 -6 -6z"/>
<path d="M3790 4446 c0 -2 8 -10 18 -17 15 -13 16 -12 3 4 -13 16 -21 21 -21
13z"/>
<path d="M3058 4433 c7 -3 16 -2 19 1 4 3 -2 6 -13 5 -11 0 -14 -3 -6 -6z"/>
<path d="M3670 4437 c0 -2 23 -19 52 -36 28 -18 47 -26 40 -19 -11 14 -92 62
-92 55z"/>
<path d="M4240 4436 c0 -2 8 -10 18 -17 15 -13 16 -12 3 4 -13 16 -21 21 -21
13z"/>
<path d="M4320 4410 c12 -16 24 -30 26 -30 3 0 -4 14 -16 30 -12 17 -24 30
-26 30 -3 0 4 -13 16 -30z"/>
<path d="M4375 4406 c10 -14 19 -26 22 -26 7 0 -17 39 -28 46 -6 3 -3 -5 6
-20z"/>
<path d="M3550 4410 c8 -5 20 -10 25 -10 6 0 3 5 -5 10 -8 5 -19 10 -25 10 -5
0 -3 -5 5 -10z"/>
<path d="M3891 4359 c36 -35 83 -84 104 -109 21 -25 32 -36 24 -25 -33 48
-114 137 -152 167 -28 21 -20 11 24 -33z"/>
<path d="M3990 4360 c29 -33 54 -60 57 -60 3 0 -18 27 -47 60 -29 33 -54 60
-57 60 -3 0 18 -27 47 -60z"/>
<path d="M3198 4403 c7 -3 16 -2 19 1 4 3 -2 6 -13 5 -11 0 -14 -3 -6 -6z"/>
<path d="M3268 4403 c7 -3 16 -2 19 1 4 3 -2 6 -13 5 -11 0 -14 -3 -6 -6z"/>
<path d="M4135 4390 c10 -11 20 -20 23 -20 3 0 -3 9 -13 20 -10 11 -20 20 -23
20 -3 0 3 -9 13 -20z"/>
<path d="M3358 4393 c7 -3 16 -2 19 1 4 3 -2 6 -13 5 -11 0 -14 -3 -6 -6z"/>
<path d="M3058 4383 c7 -3 16 -2 19 1 4 3 -2 6 -13 5 -11 0 -14 -3 -6 -6z"/>
<path d="M3610 4386 c0 -3 14 -12 30 -21 17 -9 30 -13 30 -11 0 3 -13 12 -30
21 -16 9 -30 13 -30 11z"/>
<path d="M4210 4386 c0 -2 8 -10 18 -17 15 -13 16 -12 3 4 -13 16 -21 21 -21
13z"/>
<path d="M4440 4370 c6 -11 13 -20 16 -20 2 0 0 9 -6 20 -6 11 -13 20 -16 20
-2 0 0 -9 6 -20z"/>
<path d="M2978 4363 c7 -3 16 -2 19 1 4 3 -2 6 -13 5 -11 0 -14 -3 -6 -6z"/>
<path d="M3480 4360 c8 -5 20 -10 25 -10 6 0 3 5 -5 10 -8 5 -19 10 -25 10 -5
0 -3 -5 5 -10z"/>
<path d="M3817 4330 c23 -24 44 -42 46 -40 2 3 -17 23 -42 44 l-46 40 42 -44z"/>
<path d="M4360 4350 c6 -11 13 -20 16 -20 2 0 0 9 -6 20 -6 11 -13 20 -16 20
-2 0 0 -9 6 -20z"/>
<path d="M4415 4340 c9 -16 18 -30 21 -30 2 0 -2 14 -11 30 -9 17 -18 30 -21
30 -2 0 2 -13 11 -30z"/>
<path d="M4160 4356 c0 -2 8 -10 18 -17 15 -13 16 -12 3 4 -13 16 -21 21 -21
13z"/>
<path d="M3188 4343 c7 -3 16 -2 19 1 4 3 -2 6 -13 5 -11 0 -14 -3 -6 -6z"/>
<path d="M3680 4347 c0 -3 17 -17 37 -33 20 -15 33 -23 29 -16 -8 13 -66 56
-66 49z"/>
<path d="M3541 4336 c2 -2 15 -9 29 -15 24 -11 24 -11 6 3 -16 13 -49 24 -35
12z"/>
<path d="M4320 4320 c6 -11 13 -20 16 -20 2 0 0 9 -6 20 -6 11 -13 20 -16 20
-2 0 0 -9 6 -20z"/>
<path d="M3018 4323 c7 -3 16 -2 19 1 4 3 -2 6 -13 5 -11 0 -14 -3 -6 -6z"/>
<path d="M2978 4313 c7 -3 16 -2 19 1 4 3 -2 6 -13 5 -11 0 -14 -3 -6 -6z"/>
<path d="M4270 4300 c6 -11 13 -20 16 -20 2 0 0 9 -6 20 -6 11 -13 20 -16 20
-2 0 0 -9 6 -20z"/>
<path d="M4481 4300 c14 -31 19 -36 19 -24 0 6 -7 19 -16 30 -14 18 -14 18 -3
-6z"/>
<path d="M4407 4265 c9 -19 18 -33 21 -31 4 5 -26 66 -33 66 -3 0 3 -16 12
-35z"/>
<path d="M3805 4240 c27 -27 51 -50 54 -50 3 0 -17 23 -44 50 -27 28 -51 50
-54 50 -3 0 17 -22 44 -50z"/>
<path d="M4070 4260 c12 -16 24 -30 26 -30 3 0 -4 14 -16 30 -12 17 -24 30
-26 30 -3 0 4 -13 16 -30z"/>
<path d="M4362 4245 c12 -24 23 -43 26 -41 4 5 -36 86 -43 86 -3 0 5 -20 17
-45z"/>
<path d="M3048 4273 c7 -3 16 -2 19 1 4 3 -2 6 -13 5 -11 0 -14 -3 -6 -6z"/>
<path d="M3248 4273 c7 -3 16 -2 19 1 4 3 -2 6 -13 5 -11 0 -14 -3 -6 -6z"/>
<path d="M3900 4245 c19 -19 36 -35 39 -35 3 0 -10 16 -29 35 -19 19 -36 35
-39 35 -3 0 10 -16 29 -35z"/>
<path d="M3298 4263 c7 -3 16 -2 19 1 4 3 -2 6 -13 5 -11 0 -14 -3 -6 -6z"/>
<path d="M3660 4266 c0 -2 8 -10 18 -17 15 -13 16 -12 3 4 -13 16 -21 21 -21
13z"/>
<path d="M4520 4210 c12 -30 28 -71 35 -90 8 -19 14 -29 14 -23 1 16 -49 145
-61 158 -5 6 0 -15 12 -45z"/>
<path d="M3550 4247 c0 -3 12 -12 26 -22 15 -9 23 -12 20 -6 -7 11 -46 35 -46
28z"/>
<path d="M4170 4230 c6 -11 13 -20 16 -20 2 0 0 9 -6 20 -6 11 -13 20 -16 20
-2 0 0 -9 6 -20z"/>
<path d="M4317 4215 c9 -19 18 -33 21 -31 4 5 -26 66 -33 66 -3 0 3 -16 12
-35z"/>
<path d="M3750 4185 c30 -30 57 -55 59 -55 3 0 -19 25 -49 55 -30 30 -57 55
-59 55 -3 0 19 -25 49 -55z"/>
<path d="M4475 4223 c5 -10 23 -61 42 -113 18 -52 31 -79 27 -60 -7 41 -63
190 -71 190 -3 0 -2 -8 2 -17z"/>
<path d="M3068 4213 c7 -3 16 -2 19 1 4 3 -2 6 -13 5 -11 0 -14 -3 -6 -6z"/>
<path d="M3138 4213 c6 -2 18 -2 25 0 6 3 1 5 -13 5 -14 0 -19 -2 -12 -5z"/>
<path d="M4110 4200 c6 -11 13 -20 16 -20 2 0 0 9 -6 20 -6 11 -13 20 -16 20
-2 0 0 -9 6 -20z"/>
<path d="M3228 4203 c7 -3 16 -2 19 1 4 3 -2 6 -13 5 -11 0 -14 -3 -6 -6z"/>
<path d="M3610 4206 c0 -2 8 -10 18 -17 15 -13 16 -12 3 4 -13 16 -21 21 -21
13z"/>
<path d="M3976 4148 c20 -32 39 -58 41 -58 7 0 -29 58 -55 88 -13 15 -6 1 14
-30z"/>
<path d="M4040 4180 c6 -11 13 -20 16 -20 2 0 0 9 -6 20 -6 11 -13 20 -16 20
-2 0 0 -9 6 -20z"/>
<path d="M4266 4187 c3 -10 9 -15 12 -12 3 3 0 11 -7 18 -10 9 -11 8 -5 -6z"/>
<path d="M4440 4195 c0 -5 5 -17 10 -25 5 -8 10 -10 10 -5 0 6 -5 17 -10 25
-5 8 -10 11 -10 5z"/>
<path d="M3320 4180 c8 -5 20 -10 25 -10 6 0 3 5 -5 10 -8 5 -19 10 -25 10 -5
0 -3 -5 5 -10z"/>
<path d="M3695 4130 c27 -27 51 -50 54 -50 3 0 -17 23 -44 50 -27 28 -51 50
-54 50 -3 0 17 -22 44 -50z"/>
<path d="M3884 4147 c16 -20 30 -37 33 -37 7 0 -36 58 -49 66 -7 4 1 -9 16
-29z"/>
<path d="M4211 4160 c14 -31 19 -36 19 -24 0 6 -7 19 -16 30 -14 18 -14 18 -3
-6z"/>
<path d="M3361 4166 c10 -9 89 -46 89 -41 0 5 -75 45 -86 45 -4 0 -5 -2 -3 -4z"/>
<path d="M4157 4115 c15 -30 29 -53 31 -51 4 5 -46 106 -53 106 -3 0 7 -25 22
-55z"/>
<path d="M4400 4165 c0 -5 5 -17 10 -25 5 -8 10 -10 10 -5 0 6 -5 17 -10 25
-5 8 -10 11 -10 5z"/>
<path d="M3570 4138 c42 -42 121 -109 95 -79 -16 18 -48 47 -70 64 -22 17 -33
24 -25 15z"/>
<path d="M4350 4145 c0 -5 5 -17 10 -25 5 -8 10 -10 10 -5 0 6 -5 17 -10 25
-5 8 -10 11 -10 5z"/>
<path d="M4467 4130 c3 -14 12 -41 20 -60 11 -30 12 -31 8 -6 -4 16 -13 43
-20 60 -11 23 -13 25 -8 6z"/>
<path d="M2928 4133 c7 -3 16 -2 19 1 4 3 -2 6 -13 5 -11 0 -14 -3 -6 -6z"/>
<path d="M3255 4120 c11 -5 27 -9 35 -9 9 0 8 4 -5 9 -11 5 -27 9 -35 9 -9 0
-8 -4 5 -9z"/>
<path d="M3810 4116 c0 -2 8 -10 18 -17 15 -13 16 -12 3 4 -13 16 -21 21 -21
13z"/>
<path d="M4306 4100 c3 -14 11 -32 16 -40 6 -10 7 -7 2 10 -3 14 -11 32 -16
40 -6 10 -7 7 -2 -10z"/>
<path d="M4240 4095 c0 -5 5 -17 10 -25 5 -8 10 -10 10 -5 0 6 -5 17 -10 25
-5 8 -10 11 -10 5z"/>
<path d="M4371 4095 c1 -19 18 -51 18 -35 0 8 -4 22 -9 30 -5 8 -9 11 -9 5z"/>
<path d="M3350 4086 c0 -2 7 -7 16 -10 8 -3 12 -2 9 4 -6 10 -25 14 -25 6z"/>
<path d="M3535 4060 c10 -11 20 -20 23 -20 3 0 -3 9 -13 20 -10 11 -20 20 -23
20 -3 0 3 -9 13 -20z"/>
<path d="M3865 4043 c15 -24 30 -43 32 -43 7 0 -31 61 -46 73 -8 7 -2 -7 14
-30z"/>
<path d="M4571 4080 c-1 -3 8 -48 19 -100 24 -116 26 -303 5 -405 -8 -38 -33
-108 -56 -155 -22 -47 -36 -80 -30 -75 22 22 73 140 92 213 27 100 29 273 5
395 -14 74 -34 144 -35 127z"/>
<path d="M3178 4063 c7 -3 16 -2 19 1 4 3 -2 6 -13 5 -11 0 -14 -3 -6 -6z"/>
<path d="M3765 4050 c10 -11 20 -20 23 -20 3 0 -3 9 -13 20 -10 11 -20 20 -23
20 -3 0 3 -9 13 -20z"/>
<path d="M3950 4050 c6 -11 13 -20 16 -20 2 0 0 9 -6 20 -6 11 -13 20 -16 20
-2 0 0 -9 6 -20z"/>
<path d="M4041 4040 c14 -31 19 -36 19 -24 0 6 -7 19 -16 30 -14 18 -14 18 -3
-6z"/>
<path d="M4190 4045 c0 -5 5 -17 10 -25 5 -8 10 -10 10 -5 0 6 -5 17 -10 25
-5 8 -10 11 -10 5z"/>
<path d="M4267 4030 c3 -14 12 -41 20 -60 11 -30 12 -31 8 -6 -4 16 -13 43
-20 60 -11 23 -13 25 -8 6z"/>
<path d="M3620 3980 c29 -33 54 -60 57 -60 3 0 -18 27 -47 60 -29 33 -54 60
-57 60 -3 0 18 -27 47 -60z"/>
<path d="M3300 4026 c0 -3 14 -12 30 -21 17 -9 30 -13 30 -11 0 3 -13 12 -30
21 -16 9 -30 13 -30 11z"/>
<path d="M4451 4014 c0 -11 3 -14 6 -6 3 7 2 16 -1 19 -3 4 -6 -2 -5 -13z"/>
<path d="M4501 4014 c0 -11 3 -14 6 -6 3 7 2 16 -1 19 -3 4 -6 -2 -5 -13z"/>
<path d="M2998 4013 c6 -2 18 -2 25 0 6 3 1 5 -13 5 -14 0 -19 -2 -12 -5z"/>
<path d="M3485 4000 c10 -11 20 -20 23 -20 3 0 -3 9 -13 20 -10 11 -20 20 -23
20 -3 0 3 -9 13 -20z"/>
<path d="M3705 4000 c10 -11 20 -20 23 -20 3 0 -3 9 -13 20 -10 11 -20 20 -23
20 -3 0 3 -9 13 -20z"/>
<path d="M3805 3996 c10 -14 19 -26 22 -26 7 0 -17 39 -28 46 -6 3 -3 -5 6
-20z"/>
<path d="M4130 4015 c0 -5 5 -17 10 -25 5 -8 10 -10 10 -5 0 6 -5 17 -10 25
-5 8 -10 11 -10 5z"/>
<path d="M4401 3994 c0 -11 3 -14 6 -6 3 7 2 16 -1 19 -3 4 -6 -2 -5 -13z"/>
<path d="M4555 3980 c27 -176 27 -299 0 -430 -5 -25 -5 -25 5 -2 5 12 15 63
21 113 12 92 1 256 -21 324 -10 30 -10 30 -5 -5z"/>
<path d="M3148 3993 c7 -3 16 -2 19 1 4 3 -2 6 -13 5 -11 0 -14 -3 -6 -6z"/>
<path d="M4212 3995 c0 -5 6 -26 13 -45 7 -19 14 -28 14 -20 0 8 -6 29 -14 45
-7 17 -13 26 -13 20z"/>
<path d="M3926 3938 c15 -29 40 -87 55 -128 15 -41 28 -69 29 -63 1 29 -92
243 -105 243 -3 0 7 -24 21 -52z"/>
<path d="M4461 3974 c0 -11 3 -14 6 -6 3 7 2 16 -1 19 -3 4 -6 -2 -5 -13z"/>
<path d="M4518 3945 c4 -27 7 -123 7 -212 0 -89 1 -160 2 -159 1 1 7 41 12 88
10 88 0 242 -19 303 -7 23 -8 18 -2 -20z"/>
<path d="M4071 3980 c0 -3 13 -41 29 -85 32 -89 41 -90 11 -2 -18 51 -40 100
-40 87z"/>
<path d="M4351 3964 c0 -11 3 -14 6 -6 3 7 2 16 -1 19 -3 4 -6 -2 -5 -13z"/>
<path d="M3730 3966 c0 -2 8 -10 18 -17 15 -13 16 -12 3 4 -13 16 -21 21 -21
13z"/>
<path d="M4152 3965 c0 -5 6 -26 13 -45 7 -19 14 -28 14 -20 0 8 -6 29 -14 45
-7 17 -13 26 -13 20z"/>
<path d="M4411 3954 c0 -11 3 -14 6 -6 3 7 2 16 -1 19 -3 4 -6 -2 -5 -13z"/>
<path d="M3840 3940 c6 -11 13 -20 16 -20 2 0 0 9 -6 20 -6 11 -13 20 -16 20
-2 0 0 -9 6 -20z"/>
<path d="M2963 3943 c9 -2 25 -2 35 0 9 3 1 5 -18 5 -19 0 -27 -2 -17 -5z"/>
<path d="M3430 3946 c0 -2 8 -10 18 -17 15 -13 16 -12 3 4 -13 16 -21 21 -21
13z"/>
<path d="M4472 3930 c0 -14 2 -19 5 -12 2 6 2 18 0 25 -3 6 -5 1 -5 -13z"/>
<path d="M4010 3935 c0 -5 5 -17 10 -25 5 -8 10 -10 10 -5 0 6 -5 17 -10 25
-5 8 -10 11 -10 5z"/>
<path d="M4362 3920 c0 -14 2 -19 5 -12 2 6 2 18 0 25 -3 6 -5 1 -5 -13z"/>
<path d="M3118 3923 c7 -3 16 -2 19 1 4 3 -2 6 -13 5 -11 0 -14 -3 -6 -6z"/>
<path d="M3770 3910 c6 -11 13 -20 16 -20 2 0 0 9 -6 20 -6 11 -13 20 -16 20
-2 0 0 -9 6 -20z"/>
<path d="M4301 3914 c0 -11 3 -14 6 -6 3 7 2 16 -1 19 -3 4 -6 -2 -5 -13z"/>
<path d="M4422 3910 c0 -14 2 -19 5 -12 2 6 2 18 0 25 -3 6 -5 1 -5 -13z"/>
<path d="M3605 3878 c22 -27 41 -48 43 -48 7 0 -36 56 -59 75 -12 11 -5 -1 16
-27z"/>
<path d="M4241 3894 c0 -11 3 -14 6 -6 3 7 2 16 -1 19 -3 4 -6 -2 -5 -13z"/>
<path d="M3370 3896 c0 -2 8 -10 18 -17 15 -13 16 -12 3 4 -13 16 -21 21 -21
13z"/>
<path d="M4037 3870 c3 -14 12 -41 20 -60 11 -30 12 -31 8 -6 -4 16 -13 43
-20 60 -11 23 -13 25 -8 6z"/>
<path d="M4312 3870 c0 -14 2 -19 5 -12 2 6 2 18 0 25 -3 6 -5 1 -5 -13z"/>
<path d="M4372 3870 c0 -14 2 -19 5 -12 2 6 2 18 0 25 -3 6 -5 1 -5 -13z"/>
<path d="M4481 3874 c0 -11 3 -14 6 -6 3 7 2 16 -1 19 -3 4 -6 -2 -5 -13z"/>
<path d="M2943 3873 c9 -2 23 -2 30 0 6 3 -1 5 -18 5 -16 0 -22 -2 -12 -5z"/>
<path d="M3817 3825 c15 -30 29 -53 31 -51 4 5 -46 106 -53 106 -3 0 7 -25 22
-55z"/>
<path d="M4182 3870 c0 -8 4 -26 8 -40 6 -20 8 -21 8 -5 0 11 -3 29 -8 40 -5
12 -8 14 -8 5z"/>
<path d="M3028 3863 c7 -3 16 -2 19 1 4 3 -2 6 -13 5 -11 0 -14 -3 -6 -6z"/>
<path d="M4251 3854 c0 -11 3 -14 6 -6 3 7 2 16 -1 19 -3 4 -6 -2 -5 -13z"/>
<path d="M4432 3845 c0 -16 2 -22 5 -12 2 9 2 23 0 30 -3 6 -5 -1 -5 -18z"/>
<path d="M3088 3853 c7 -3 16 -2 19 1 4 3 -2 6 -13 5 -11 0 -14 -3 -6 -6z"/>
<path d="M3430 3847 c0 -2 15 -16 33 -33 l32 -29 -29 33 c-28 30 -36 37 -36
29z"/>
<path d="M3730 3830 c6 -11 13 -20 16 -20 2 0 0 9 -6 20 -6 11 -13 20 -16 20
-2 0 0 -9 6 -20z"/>
<path d="M3891 3845 c0 -5 9 -28 20 -50 10 -22 16 -29 13 -15 -7 28 -33 80
-33 65z"/>
<path d="M3555 3820 c10 -11 20 -20 23 -20 3 0 -3 9 -13 20 -10 11 -20 20 -23
20 -3 0 3 -9 13 -20z"/>
<path d="M3180 3826 c0 -2 7 -7 16 -10 8 -3 12 -2 9 4 -6 10 -25 14 -25 6z"/>
<path d="M4262 3805 c0 -16 2 -22 5 -12 2 9 2 23 0 30 -3 6 -5 -1 -5 -18z"/>
<path d="M3365 3800 c10 -11 20 -20 23 -20 3 0 -3 9 -13 20 -10 11 -20 20 -23
20 -3 0 3 -9 13 -20z"/>
<path d="M4321 3804 c0 -11 3 -14 6 -6 3 7 2 16 -1 19 -3 4 -6 -2 -5 -13z"/>
<path d="M2928 3803 c7 -3 16 -2 19 1 4 3 -2 6 -13 5 -11 0 -14 -3 -6 -6z"/>
<path d="M4131 3794 c0 -11 3 -14 6 -6 3 7 2 16 -1 19 -3 4 -6 -2 -5 -13z"/>
<path d="M4202 3780 c0 -14 2 -19 5 -12 2 6 2 18 0 25 -3 6 -5 1 -5 -13z"/>
<path d="M3068 3783 c7 -3 16 -2 19 1 4 3 -2 6 -13 5 -11 0 -14 -3 -6 -6z"/>
<path d="M3685 3760 c9 -16 18 -30 21 -30 2 0 -2 14 -11 30 -9 17 -18 30 -21
30 -2 0 2 -13 11 -30z"/>
<path d="M3140 3760 c8 -5 20 -10 25 -10 6 0 3 5 -5 10 -8 5 -19 10 -25 10 -5
0 -3 -5 5 -10z"/>
<path d="M4071 3754 c0 -11 3 -14 6 -6 3 7 2 16 -1 19 -3 4 -6 -2 -5 -13z"/>
<path d="M4142 3750 c0 -14 2 -19 5 -12 2 6 2 18 0 25 -3 6 -5 1 -5 -13z"/>
<path d="M4331 3754 c0 -11 3 -14 6 -6 3 7 2 16 -1 19 -3 4 -6 -2 -5 -13z"/>
<path d="M3510 3756 c0 -2 8 -10 18 -17 15 -13 16 -12 3 4 -13 16 -21 21 -21
13z"/>
<path d="M3850 3755 c0 -5 5 -17 10 -25 5 -8 10 -10 10 -5 0 6 -5 17 -10 25
-5 8 -10 11 -10 5z"/>
<path d="M3335 3730 c10 -11 20 -20 23 -20 3 0 -3 9 -13 20 -10 11 -20 20 -23
20 -3 0 3 -9 13 -20z"/>
<path d="M3781 3735 c0 -5 6 -21 14 -35 8 -14 14 -20 14 -15 0 6 -6 21 -14 35
-8 14 -14 21 -14 15z"/>
<path d="M4211 3724 c0 -11 3 -14 6 -6 3 7 2 16 -1 19 -3 4 -6 -2 -5 -13z"/>
<path d="M2988 3723 c7 -3 16 -2 19 1 4 3 -2 6 -13 5 -11 0 -14 -3 -6 -6z"/>
<path d="M3220 3727 c0 -3 12 -12 26 -22 15 -9 23 -12 20 -6 -7 11 -46 35 -46
28z"/>
<path d="M4011 3714 c0 -11 3 -14 6 -6 3 7 2 16 -1 19 -3 4 -6 -2 -5 -13z"/>
<path d="M4082 3710 c0 -14 2 -19 5 -12 2 6 2 18 0 25 -3 6 -5 1 -5 -13z"/>
<path d="M3048 3713 c7 -3 16 -2 19 1 4 3 -2 6 -13 5 -11 0 -14 -3 -6 -6z"/>
<path d="M3465 3700 c10 -11 20 -20 23 -20 3 0 -3 9 -13 20 -10 11 -20 20 -23
20 -3 0 3 -9 13 -20z"/>
<path d="M3540 3716 c0 -2 8 -10 18 -17 15 -13 16 -12 3 4 -13 16 -21 21 -21
13z"/>
<path d="M3941 3710 c0 -8 4 -24 9 -35 5 -13 9 -14 9 -5 0 8 -4 24 -9 35 -5
13 -9 14 -9 5z"/>
<path d="M4152 3680 c0 -19 2 -27 5 -17 2 9 2 25 0 35 -3 9 -5 1 -5 -18z"/>
<path d="M3721 3695 c0 -5 6 -21 14 -35 8 -14 14 -20 14 -15 0 6 -6 21 -14 35
-8 14 -14 21 -14 15z"/>
<path d="M4022 3670 c0 -14 2 -19 5 -12 2 6 2 18 0 25 -3 6 -5 1 -5 -13z"/>
<path d="M3585 3650 c9 -16 18 -30 21 -30 2 0 -2 14 -11 30 -9 17 -18 30 -21
30 -2 0 2 -13 11 -30z"/>
<path d="M3881 3670 c0 -8 4 -24 9 -35 5 -13 9 -14 9 -5 0 8 -4 24 -9 35 -5
13 -9 14 -9 5z"/>
<path d="M3490 3666 c0 -2 8 -10 18 -17 15 -13 16 -12 3 4 -13 16 -21 21 -21
13z"/>
<path d="M3425 3640 c10 -11 20 -20 23 -20 3 0 -3 9 -13 20 -10 11 -20 20 -23
20 -3 0 3 -9 13 -20z"/>
<path d="M3666 3647 c3 -10 9 -15 12 -12 3 3 0 11 -7 18 -10 9 -11 8 -5 -6z"/>
<path d="M3038 3643 c7 -3 16 -2 19 1 4 3 -2 6 -13 5 -11 0 -14 -3 -6 -6z"/>
<path d="M3350 3625 c13 -14 26 -25 28 -25 3 0 -5 11 -18 25 -13 14 -26 25
-28 25 -3 0 5 -11 18 -25z"/>
<path d="M3962 3630 c0 -14 2 -19 5 -12 2 6 2 18 0 25 -3 6 -5 1 -5 -13z"/>
<path d="M4091 3634 c0 -11 3 -14 6 -6 3 7 2 16 -1 19 -3 4 -6 -2 -5 -13z"/>
<path d="M4481 3624 c0 -11 3 -14 6 -6 3 7 2 16 -1 19 -3 4 -6 -2 -5 -13z"/>
<path d="M3110 3620 c8 -5 20 -10 25 -10 6 0 3 5 -5 10 -8 5 -19 10 -25 10 -5
0 -3 -5 5 -10z"/>
<path d="M3530 3610 c6 -11 13 -20 16 -20 2 0 0 9 -6 20 -6 11 -13 20 -16 20
-2 0 0 -9 6 -20z"/>
<path d="M3757 3610 c3 -14 12 -41 20 -60 11 -30 12 -31 8 -6 -4 16 -13 43
-20 60 -11 23 -13 25 -8 6z"/>
<path d="M4032 3605 c0 -16 2 -22 5 -12 2 9 2 23 0 30 -3 6 -5 -1 -5 -18z"/>
<path d="M4382 3595 c0 -16 2 -22 5 -12 2 9 2 23 0 30 -3 6 -5 -1 -5 -18z"/>
<path d="M4432 3595 c0 -16 2 -22 5 -12 2 9 2 23 0 30 -3 6 -5 -1 -5 -18z"/>
<path d="M3832 3600 c0 -8 4 -26 8 -40 6 -20 8 -21 8 -5 0 11 -3 29 -8 40 -5
12 -8 14 -8 5z"/>
<path d="M3902 3590 c0 -14 2 -19 5 -12 2 6 2 18 0 25 -3 6 -5 1 -5 -13z"/>
<path d="M4163 3575 c0 -22 2 -30 4 -17 2 12 2 30 0 40 -3 9 -5 -1 -4 -23z"/>
<path d="M2878 3593 c7 -3 16 -2 19 1 4 3 -2 6 -13 5 -11 0 -14 -3 -6 -6z"/>
<path d="M2928 3593 c7 -3 16 -2 19 1 4 3 -2 6 -13 5 -11 0 -14 -3 -6 -6z"/>
<path d="M3690 3595 c0 -5 5 -17 10 -25 5 -8 10 -10 10 -5 0 6 -5 17 -10 25
-5 8 -10 11 -10 5z"/>
<path d="M3972 3575 c0 -16 2 -22 5 -12 2 9 2 23 0 30 -3 6 -5 -1 -5 -18z"/>
<path d="M4271 3584 c0 -11 3 -14 6 -6 3 7 2 16 -1 19 -3 4 -6 -2 -5 -13z"/>
<path d="M3038 3573 c7 -3 16 -2 19 1 4 3 -2 6 -13 5 -11 0 -14 -3 -6 -6z"/>
<path d="M3571 3538 c12 -23 32 -69 46 -102 13 -34 21 -48 18 -31 -8 35 -71
175 -80 175 -3 0 4 -19 16 -42z"/>
<path d="M4472 3560 c0 -14 2 -19 5 -12 2 6 2 18 0 25 -3 6 -5 1 -5 -13z"/>
<path d="M3320 3566 c0 -2 8 -10 18 -17 15 -13 16 -12 3 4 -13 16 -21 21 -21
13z"/>
<path d="M3400 3566 c0 -2 8 -10 18 -17 15 -13 16 -12 3 4 -13 16 -21 21 -21
13z"/>
<path d="M3631 3565 c0 -5 6 -21 14 -35 8 -14 14 -20 14 -15 0 6 -6 21 -14 35
-8 14 -14 21 -14 15z"/>
<path d="M4103 3530 c0 -25 2 -35 4 -22 2 12 2 32 0 45 -2 12 -4 2 -4 -23z"/>
<path d="M3912 3540 c0 -14 2 -19 5 -12 2 6 2 18 0 25 -3 6 -5 1 -5 -13z"/>
<path d="M4271 3544 c0 -11 3 -14 6 -6 3 7 2 16 -1 19 -3 4 -6 -2 -5 -13z"/>
<path d="M4322 3535 c0 -16 2 -22 5 -12 2 9 2 23 0 30 -3 6 -5 -1 -5 -18z"/>
<path d="M4416 3529 c-8 -42 0 -50 9 -9 4 17 5 34 2 36 -2 3 -7 -10 -11 -27z"/>
<path d="M4511 3544 c0 -11 3 -14 6 -6 3 7 2 16 -1 19 -3 4 -6 -2 -5 -13z"/>
<path d="M3120 3546 c0 -2 7 -7 16 -10 8 -3 12 -2 9 4 -6 10 -25 14 -25 6z"/>
<path d="M4371 3534 c0 -11 3 -14 6 -6 3 7 2 16 -1 19 -3 4 -6 -2 -5 -13z"/>
<path d="M3275 3520 c10 -11 20 -20 23 -20 3 0 -3 9 -13 20 -10 11 -20 20 -23
20 -3 0 3 -9 13 -20z"/>
<path d="M4042 3510 c0 -19 2 -27 5 -17 2 9 2 25 0 35 -3 9 -5 1 -5 -18z"/>
<path d="M4212 3510 c0 -19 2 -27 5 -17 2 9 2 25 0 35 -3 9 -5 1 -5 -18z"/>
<path d="M2898 3523 c6 -2 18 -2 25 0 6 3 1 5 -13 5 -14 0 -19 -2 -12 -5z"/>
<path d="M3430 3526 c0 -2 8 -10 18 -17 15 -13 16 -12 3 4 -13 16 -21 21 -21
13z"/>
<path d="M3852 3510 c0 -14 2 -19 5 -12 2 6 2 18 0 25 -3 6 -5 1 -5 -13z"/>
<path d="M4448 3482 c-22 -60 -15 -67 7 -7 10 25 16 47 14 50 -3 2 -12 -17
-21 -43z"/>
<path d="M4514 3444 c-18 -41 -30 -74 -27 -74 7 0 64 131 61 140 -2 4 -17 -26
-34 -66z"/>
<path d="M3200 3506 c0 -2 8 -10 18 -17 15 -13 16 -12 3 4 -13 16 -21 21 -21
13z"/>
<path d="M3385 3490 c10 -11 20 -20 23 -20 3 0 -3 9 -13 20 -10 11 -20 20 -23
20 -3 0 3 -9 13 -20z"/>
<path d="M3792 3490 c0 -14 2 -19 5 -12 2 6 2 18 0 25 -3 6 -5 1 -5 -13z"/>
<path d="M4262 3490 c0 -14 2 -19 5 -12 2 6 2 18 0 25 -3 6 -5 1 -5 -13z"/>
<path d="M4361 3494 c0 -11 3 -14 6 -6 3 7 2 16 -1 19 -3 4 -6 -2 -5 -13z"/>
<path d="M4311 3484 c0 -11 3 -14 6 -6 3 7 2 16 -1 19 -3 4 -6 -2 -5 -13z"/>
<path d="M3731 3474 c0 -11 3 -14 6 -6 3 7 2 16 -1 19 -3 4 -6 -2 -5 -13z"/>
<path d="M4486 3475 c-9 -26 -7 -32 5 -12 6 10 9 21 6 23 -2 3 -7 -2 -11 -11z"/>
<path d="M3255 3460 c10 -11 20 -20 23 -20 3 0 -3 9 -13 20 -10 11 -20 20 -23
20 -3 0 3 -9 13 -20z"/>
<path d="M3340 3455 c13 -14 26 -25 28 -25 3 0 -5 11 -18 25 -13 14 -26 25
-28 25 -3 0 5 -11 18 -25z"/>
<path d="M3863 3445 c0 -22 2 -30 4 -17 2 12 2 30 0 40 -3 9 -5 -1 -4 -23z"/>
<path d="M4373 3409 c-17 -38 -29 -69 -27 -69 7 0 67 130 63 135 -3 2 -18 -28
-36 -66z"/>
<path d="M3480 3450 c6 -11 13 -20 16 -20 2 0 0 9 -6 20 -6 11 -13 20 -16 20
-2 0 0 -9 6 -20z"/>
<path d="M3541 3465 c0 -5 6 -21 14 -35 8 -14 14 -20 14 -15 0 6 -6 21 -14 35
-8 14 -14 21 -14 15z"/>
<path d="M4041 3454 c0 -11 3 -14 6 -6 3 7 2 16 -1 19 -3 4 -6 -2 -5 -13z"/>
<path d="M4151 3454 c0 -11 3 -14 6 -6 3 7 2 16 -1 19 -3 4 -6 -2 -5 -13z"/>
<path d="M4202 3450 c0 -14 2 -19 5 -12 2 6 2 18 0 25 -3 6 -5 1 -5 -13z"/>
<path d="M2898 3453 c7 -3 16 -2 19 1 4 3 -2 6 -13 5 -11 0 -14 -3 -6 -6z"/>
<path d="M2938 3453 c7 -3 16 -2 19 1 4 3 -2 6 -13 5 -11 0 -14 -3 -6 -6z"/>
<path d="M4240 3418 c-7 -24 -23 -64 -36 -90 -14 -27 -22 -48 -19 -48 14 0 82
166 73 176 -3 2 -11 -15 -18 -38z"/>
<path d="M3028 3443 c7 -3 16 -2 19 1 4 3 -2 6 -13 5 -11 0 -14 -3 -6 -6z"/>
<path d="M3741 3434 c0 -11 3 -14 6 -6 3 7 2 16 -1 19 -3 4 -6 -2 -5 -13z"/>
<path d="M3682 3430 c0 -8 4 -26 8 -40 6 -20 8 -21 8 -5 0 11 -3 29 -8 40 -5
12 -8 14 -8 5z"/>
<path d="M4336 3425 c-9 -26 -7 -32 5 -12 6 10 9 21 6 23 -2 3 -7 -2 -11 -11z"/>
<path d="M4457 3405 c-9 -19 -15 -35 -12 -35 7 0 37 61 33 66 -3 2 -12 -12
-21 -31z"/>
<path d="M4091 3414 c0 -11 3 -14 6 -6 3 7 2 16 -1 19 -3 4 -6 -2 -5 -13z"/>
<path d="M4136 3399 c-8 -42 0 -50 9 -9 4 17 5 34 2 36 -2 3 -7 -10 -11 -27z"/>
<path d="M4286 3415 c-9 -26 -7 -32 5 -12 6 10 9 21 6 23 -2 3 -7 -2 -11 -11z"/>
<path d="M3245 3400 c10 -11 20 -20 23 -20 3 0 -3 9 -13 20 -10 11 -20 20 -23
20 -3 0 3 -9 13 -20z"/>
<path d="M4191 3413 c-1 -6 -4 -20 -7 -30 -5 -17 -5 -17 6 0 6 10 9 23 6 30
-3 9 -5 9 -5 0z"/>
<path d="M3981 3394 c0 -11 3 -14 6 -6 3 7 2 16 -1 19 -3 4 -6 -2 -5 -13z"/>
<path d="M4032 3385 c0 -16 2 -22 5 -12 2 9 2 23 0 30 -3 6 -5 -1 -5 -18z"/>
<path d="M2933 3393 c9 -2 23 -2 30 0 6 3 -1 5 -18 5 -16 0 -22 -2 -12 -5z"/>
<path d="M3577 3380 c3 -14 12 -41 20 -60 11 -30 12 -31 8 -6 -4 16 -13 43
-20 60 -11 23 -13 25 -8 6z"/>
<path d="M3018 3383 c6 -2 18 -2 25 0 6 3 1 5 -13 5 -14 0 -19 -2 -12 -5z"/>
<path d="M3330 3386 c0 -2 8 -10 18 -17 15 -13 16 -12 3 4 -13 16 -21 21 -21
13z"/>
<path d="M4068 3333 c-9 -32 -15 -59 -13 -61 5 -5 37 97 33 108 -2 5 -11 -16
-20 -47z"/>
<path d="M3068 3373 c7 -3 16 -2 19 1 4 3 -2 6 -13 5 -11 0 -14 -3 -6 -6z"/>
<path d="M3200 3376 c0 -2 8 -10 18 -17 15 -13 16 -12 3 4 -13 16 -21 21 -21
13z"/>
<path d="M4261 3353 c-10 -26 -10 -27 4 -9 8 11 15 23 15 28 0 15 -7 8 -19
-19z"/>
<path d="M3641 3354 c0 -11 3 -14 6 -6 3 7 2 16 -1 19 -3 4 -6 -2 -5 -13z"/>
<path d="M3811 3354 c0 -11 3 -14 6 -6 3 7 2 16 -1 19 -3 4 -6 -2 -5 -13z"/>
<path d="M3476 3347 c3 -10 9 -15 12 -12 3 3 0 11 -7 18 -10 9 -11 8 -5 -6z"/>
<path d="M3702 3340 c0 -14 2 -19 5 -12 2 6 2 18 0 25 -3 6 -5 1 -5 -13z"/>
<path d="M4166 3345 c-9 -26 -7 -32 5 -12 6 10 9 21 6 23 -2 3 -7 -2 -11 -11z"/>
<path d="M4415 3334 c-9 -15 -12 -23 -6 -20 11 7 35 46 28 46 -3 0 -12 -12
-22 -26z"/>
<path d="M3260 3325 c13 -14 26 -25 28 -25 3 0 -5 11 -18 25 -13 14 -26 25
-28 25 -3 0 5 -11 18 -25z"/>
<path d="M3972 3330 c0 -14 2 -19 5 -12 2 6 2 18 0 25 -3 6 -5 1 -5 -13z"/>
<path d="M4016 3319 c-8 -42 0 -50 9 -9 4 17 5 34 2 36 -2 3 -7 -10 -11 -27z"/>
<path d="M4116 3335 c-9 -26 -7 -32 5 -12 6 10 9 21 6 23 -2 3 -7 -2 -11 -11z"/>
<path d="M3170 3336 c0 -3 9 -10 20 -16 11 -6 20 -8 20 -6 0 3 -9 10 -20 16
-11 6 -20 8 -20 6z"/>
<path d="M3761 3324 c0 -11 3 -14 6 -6 3 7 2 16 -1 19 -3 4 -6 -2 -5 -13z"/>
<path d="M3028 3323 c7 -3 16 -2 19 1 4 3 -2 6 -13 5 -11 0 -14 -3 -6 -6z"/>
<path d="M3335 3310 c10 -11 20 -20 23 -20 3 0 -3 9 -13 20 -10 11 -20 20 -23
20 -3 0 3 -9 13 -20z"/>
<path d="M3440 3310 c6 -11 13 -20 16 -20 2 0 0 9 -6 20 -6 11 -13 20 -16 20
-2 0 0 -9 6 -20z"/>
<path d="M3651 3314 c0 -11 3 -14 6 -6 3 7 2 16 -1 19 -3 4 -6 -2 -5 -13z"/>
<path d="M4430 3298 c-15 -21 -17 -28 -6 -19 16 13 41 51 33 51 -2 0 -14 -15
-27 -32z"/>
<path d="M4469 3298 c-13 -18 -59 -71 -103 -118 l-81 -85 77 74 c69 67 148
161 134 161 -2 0 -15 -15 -27 -32z"/>
<path d="M3078 3313 c7 -3 16 -2 19 1 4 3 -2 6 -13 5 -11 0 -14 -3 -6 -6z"/>
<path d="M4230 3300 c-6 -11 -8 -20 -6 -20 3 0 10 9 16 20 6 11 8 20 6 20 -3
0 -10 -9 -16 -20z"/>
<path d="M3220 3306 c0 -2 8 -10 18 -17 15 -13 16 -12 3 4 -13 16 -21 21 -21
13z"/>
<path d="M3551 3300 c0 -8 4 -24 9 -35 5 -13 9 -14 9 -5 0 8 -4 24 -9 35 -5
13 -9 14 -9 5z"/>
<path d="M3500 3295 c0 -5 5 -17 10 -25 5 -8 10 -10 10 -5 0 6 -5 17 -10 25
-5 8 -10 11 -10 5z"/>
<path d="M3712 3275 c0 -16 2 -22 5 -12 2 9 2 23 0 30 -3 6 -5 -1 -5 -18z"/>
<path d="M3958 3275 c-4 -16 -9 -39 -12 -50 -4 -11 1 -5 9 14 9 18 14 41 13
50 -2 9 -7 3 -10 -14z"/>
<path d="M4087 3265 c-9 -19 -15 -35 -12 -35 7 0 37 61 33 66 -3 2 -12 -12
-21 -31z"/>
<path d="M4301 3197 c-93 -100 -93 -101 -17 -27 65 63 126 132 114 129 -2 0
-46 -46 -97 -102z"/>
<path d="M3862 3265 c0 -16 2 -22 5 -12 2 9 2 23 0 30 -3 6 -5 -1 -5 -18z"/>
<path d="M3912 3270 c0 -14 2 -19 5 -12 2 6 2 18 0 25 -3 6 -5 1 -5 -13z"/>
<path d="M4121 3254 c-12 -19 -16 -32 -11 -29 11 7 43 65 36 65 -2 0 -13 -16
-25 -36z"/>
<path d="M3300 3238 c41 -45 50 -53 50 -45 0 2 -21 23 -47 47 l-48 45 45 -47z"/>
<path d="M3325 3260 c10 -11 20 -20 23 -20 3 0 -3 9 -13 20 -10 11 -20 20 -23
20 -3 0 3 -9 13 -20z"/>
<path d="M3612 3260 c0 -14 2 -19 5 -12 2 6 2 18 0 25 -3 6 -5 1 -5 -13z"/>
<path d="M3662 3255 c0 -16 2 -22 5 -12 2 9 2 23 0 30 -3 6 -5 -1 -5 -18z"/>
<path d="M2988 3263 c6 -2 18 -2 25 0 6 3 1 5 -13 5 -14 0 -19 -2 -12 -5z"/>
<path d="M3996 3255 c-9 -26 -7 -32 5 -12 6 10 9 21 6 23 -2 3 -7 -2 -11 -11z"/>
<path d="M4184 3233 c-16 -21 -47 -59 -69 -84 -34 -39 -32 -38 11 6 49 51 100
115 91 115 -3 0 -17 -17 -33 -37z"/>
<path d="M4239 3253 c-13 -16 -12 -17 4 -4 16 13 21 21 13 21 -2 0 -10 -8 -17
-17z"/>
<path d="M4274 3248 l-19 -23 23 19 c21 18 27 26 19 26 -2 0 -12 -10 -23 -22z"/>
<path d="M4250 3183 c-58 -59 -68 -73 -33 -42 44 36 131 130 121 129 -2 -1
-41 -40 -88 -87z"/>
<path d="M3108 3253 c7 -3 16 -2 19 1 4 3 -2 6 -13 5 -11 0 -14 -3 -6 -6z"/>
<path d="M4325 3178 l-80 -83 83 80 c76 74 87 85 79 85 -1 0 -38 -37 -82 -82z"/>
<path d="M3571 3224 c0 -11 3 -14 6 -6 3 7 2 16 -1 19 -3 4 -6 -2 -5 -13z"/>
<path d="M3713 3200 c0 -25 2 -35 4 -22 2 12 2 32 0 45 -2 12 -4 2 -4 -23z"/>
<path d="M3892 3203 c-15 -48 -8 -55 8 -8 7 20 10 38 8 41 -3 2 -10 -13 -16
-33z"/>
<path d="M4139 3223 c-13 -16 -12 -17 4 -4 9 7 17 15 17 17 0 8 -8 3 -21 -13z"/>
<path d="M4155 3158 l-70 -73 73 70 c67 64 77 75 69 75 -1 0 -34 -33 -72 -72z"/>
<path d="M3446 3207 c3 -10 9 -15 12 -12 3 3 0 11 -7 18 -10 9 -11 8 -5 -6z"/>
<path d="M3531 3204 c0 -11 3 -14 6 -6 3 7 2 16 -1 19 -3 4 -6 -2 -5 -13z"/>
<path d="M3851 3204 c0 -11 3 -14 6 -6 3 7 2 16 -1 19 -3 4 -6 -2 -5 -13z"/>
<path d="M4045 3194 c-9 -15 -12 -23 -6 -20 11 7 35 46 28 46 -3 0 -12 -12
-22 -26z"/>
<path d="M4205 3172 c-27 -26 -68 -63 -90 -82 -22 -19 -36 -32 -31 -27 19 14
28 7 15 -10 -9 -12 -3 -10 18 5 18 13 36 28 39 35 4 7 -2 4 -13 -5 -11 -10
-24 -18 -29 -18 -5 0 27 34 71 75 44 40 78 74 75 74 -3 0 -27 -21 -55 -47z"/>
<path d="M3018 3203 c7 -3 16 -2 19 1 4 3 -2 6 -13 5 -11 0 -14 -3 -6 -6z"/>
<path d="M3068 3203 c7 -3 16 -2 19 1 4 3 -2 6 -13 5 -11 0 -14 -3 -6 -6z"/>
<path d="M4042 3150 c-30 -33 -57 -58 -61 -55 -4 2 -21 -9 -36 -25 -39 -41
-56 -38 -19 3 l29 32 -38 -34 c-20 -19 -37 -31 -37 -26 0 4 -9 0 -20 -10 -18
-17 -19 -41 0 -30 11 7 32 -30 23 -38 -7 -8 16 -37 30 -37 5 0 2 10 -9 22
l-19 22 26 -20 c15 -10 22 -22 17 -25 -6 -4 -5 -9 3 -13 8 -3 3 -3 -11 0 -20
4 -22 3 -10 -6 12 -9 12 -10 -5 -6 -11 3 -27 1 -35 -4 -13 -9 -13 -10 0 -10 9
-1 5 -6 -10 -15 -14 -8 -22 -14 -17 -15 11 0 207 99 207 105 0 3 -18 -4 -40
-15 -21 -11 -41 -20 -43 -20 -2 0 -3 17 -2 38 1 20 -1 42 -4 47 -12 21 -6 32
54 95 61 65 91 100 84 100 -2 0 -28 -27 -57 -60z m-78 -82 c-17 -19 -23 -40
-14 -50 5 -8 7 -38 2 -38 -3 0 -16 9 -28 21 -16 15 -24 17 -29 8 -6 -8 -4 -10
6 -4 8 5 11 4 6 0 -9 -11 21 -45 36 -41 7 2 8 1 3 -2 -4 -2 -2 -8 5 -13 12 -7
12 -9 0 -9 -7 0 -30 17 -49 38 -20 20 -40 36 -46 34 -5 -2 -4 4 3 12 7 8 22
13 35 10 15 -2 31 6 51 26 33 35 48 41 19 8z m-33 -85 c13 -16 12 -17 -3 -4
-17 13 -22 21 -14 21 2 0 10 -8 17 -17z"/>
<path d="M3926 3031 c-3 -5 2 -15 12 -22 15 -12 16 -12 5 2 -7 9 -10 19 -6 22
3 4 4 7 0 7 -3 0 -8 -4 -11 -9z"/>
<path d="M3876 3018 c3 -5 10 -6 15 -3 13 9 11 12 -6 12 -8 0 -12 -4 -9 -9z"/>
<path d="M2928 3193 c7 -3 16 -2 19 1 4 3 -2 6 -13 5 -11 0 -14 -3 -6 -6z"/>
<path d="M3148 3193 c7 -3 16 -2 19 1 4 3 -2 6 -13 5 -11 0 -14 -3 -6 -6z"/>
<path d="M3320 3175 c13 -14 26 -25 28 -25 3 0 -5 11 -18 25 -13 14 -26 25
-28 25 -3 0 5 -11 18 -25z"/>
<path d="M3421 3180 c14 -31 19 -36 19 -24 0 6 -7 19 -16 30 -14 18 -14 18 -3
-6z"/>
<path d="M3582 3180 c0 -14 2 -19 5 -12 2 6 2 18 0 25 -3 6 -5 1 -5 -13z"/>
<path d="M3671 3184 c0 -11 3 -14 6 -6 3 7 2 16 -1 19 -3 4 -6 -2 -5 -13z"/>
<path d="M3802 3180 c0 -14 2 -19 5 -12 2 6 2 18 0 25 -3 6 -5 1 -5 -13z"/>
<path d="M3917 3165 c-9 -19 -15 -35 -12 -35 7 0 37 61 33 66 -3 2 -12 -12
-21 -31z"/>
<path d="M4099 3173 c-32 -36 -53 -63 -47 -63 2 0 21 20 41 45 42 49 45 61 6
18z"/>
<path d="M3220 3170 c8 -5 20 -10 25 -10 6 0 3 5 -5 10 -8 5 -19 10 -25 10 -5
0 -3 -5 5 -10z"/>
<path d="M3460 3175 c0 -5 5 -17 10 -25 5 -8 10 -10 10 -5 0 6 -5 17 -10 25
-5 8 -10 11 -10 5z"/>
<path d="M3841 3173 c-1 -6 -4 -20 -7 -30 -5 -17 -5 -17 6 0 6 10 9 23 6 30
-3 9 -5 9 -5 0z"/>
<path d="M3970 3138 c-15 -21 -17 -28 -6 -19 16 13 41 51 33 51 -2 0 -14 -15
-27 -32z"/>
<path d="M3999 3133 l-24 -28 28 24 c25 23 32 31 24 31 -2 0 -14 -12 -28 -27z"/>
<path d="M3511 3134 c0 -11 3 -14 6 -6 3 7 2 16 -1 19 -3 4 -6 -2 -5 -13z"/>
<path d="M3752 3130 c0 -14 2 -19 5 -12 2 6 2 18 0 25 -3 6 -5 1 -5 -13z"/>
<path d="M3791 3134 c0 -11 3 -14 6 -6 3 7 2 16 -1 19 -3 4 -6 -2 -5 -13z"/>
<path d="M2968 3133 c7 -3 16 -2 19 1 4 3 -2 6 -13 5 -11 0 -14 -3 -6 -6z"/>
<path d="M3218 3133 c7 -3 16 -2 19 1 4 3 -2 6 -13 5 -11 0 -14 -3 -6 -6z"/>
<path d="M3552 3120 c0 -14 2 -19 5 -12 2 6 2 18 0 25 -3 6 -5 1 -5 -13z"/>
<path d="M3592 3115 c0 -16 2 -22 5 -12 2 9 2 23 0 30 -3 6 -5 -1 -5 -18z"/>
<path d="M3345 3122 c4 -4 12 -7 18 -7 5 0 11 -10 12 -23 1 -16 -2 -21 -13
-17 -12 4 -12 2 -4 -8 7 -8 8 -18 4 -23 -4 -4 2 -2 12 6 18 14 19 13 13 -2 -3
-10 -3 -18 1 -18 4 0 21 -12 37 -26 17 -14 23 -22 15 -18 -8 4 -5 -3 8 -15 12
-12 20 -26 17 -32 -4 -5 -1 -9 4 -9 6 0 11 -6 11 -14 0 -9 -8 -13 -22 -10 -21
4 -21 4 2 -6 32 -14 40 -28 40 -71 0 -42 -11 -49 -116 -74 -38 -9 -107 -28
-153 -42 -76 -22 -254 -60 -291 -61 -8 0 -42 -5 -75 -11 -74 -13 -88 -14 -80
-2 3 5 -7 4 -22 -4 -55 -27 -448 -38 -735 -20 -79 5 -108 3 -108 -5 0 -6 10
-11 23 -10 36 3 49 1 43 -9 -8 -12 18 -21 57 -20 27 0 29 2 12 9 -24 11 -1 11
35 1 14 -4 40 -4 58 0 24 5 32 3 32 -7 0 -11 22 -14 103 -16 56 0 114 -2 128
-2 14 -1 26 3 26 9 0 6 -38 9 -106 7 -58 -2 -104 -1 -101 1 8 8 212 10 245 3
17 -4 38 -7 48 -7 9 0 17 -4 17 -10 0 -5 -5 -9 -11 -9 -6 0 -17 -6 -25 -14
-12 -13 -12 -15 5 -13 11 0 17 5 15 9 -3 4 2 8 10 8 9 0 16 5 16 10 0 6 7 10
15 10 8 0 15 5 15 10 0 6 5 10 11 10 5 0 8 -3 6 -7 -3 -5 16 -7 41 -5 35 2 43
0 32 -7 -8 -6 -10 -11 -4 -11 6 0 17 6 23 14 10 12 7 15 -21 19 -18 2 -13 3
11 2 25 -2 52 2 61 8 12 7 30 7 58 0 33 -9 45 -8 63 5 12 8 19 10 15 4 -4 -7
-1 -12 8 -12 9 0 16 4 16 9 0 5 14 5 33 1 71 -17 92 -20 73 -12 -15 6 -6 11
37 21 42 9 61 9 77 1 11 -6 25 -8 30 -5 16 10 47 -4 47 -20 0 -8 -15 -20 -34
-27 -35 -13 -41 -22 -21 -34 7 -5 8 -3 3 6 -6 10 -4 12 9 7 11 -4 15 -3 10 4
-4 8 1 9 16 4 17 -5 21 -4 15 6 -6 9 -3 11 9 6 9 -4 15 -3 11 3 -3 5 3 8 12 8
10 0 27 3 37 7 15 6 17 5 11 -5 -5 -9 -4 -11 4 -6 6 4 8 12 5 18 -5 8 -1 9 10
5 11 -5 15 -3 10 4 -4 7 -1 10 7 7 16 -5 19 -28 6 -45 -7 -9 -4 -13 11 -13 12
0 24 5 27 10 9 15 48 13 39 -2 -4 -7 1 -5 12 4 10 9 22 17 27 17 4 1 8 1 10 2
30 9 37 6 32 -14 -5 -21 -5 -21 6 1 15 29 85 32 92 5 4 -14 5 -12 6 5 1 13 -5
22 -14 22 -8 0 -15 6 -15 13 0 8 -4 7 -10 -3 -9 -13 -11 -13 -20 0 -6 10 -10
11 -10 3 0 -18 -19 -16 -38 5 -10 9 -14 13 -9 8 9 -12 10 -32 0 -23 -3 4 -11
3 -17 -2 -6 -4 -23 -11 -38 -15 -26 -6 -27 -5 -19 33 1 2 7 -1 14 -6 16 -12
37 -11 37 2 0 6 -8 10 -17 10 -10 -1 -22 5 -26 12 -6 10 -13 10 -29 2 -13 -7
-18 -7 -14 -1 3 6 2 13 -4 17 -5 3 -10 11 -10 17 0 6 6 5 16 -3 24 -19 44 -20
36 -1 -4 10 -7 12 -10 4 -4 -13 -22 -7 -22 8 0 5 9 7 20 5 11 -2 20 0 20 4 0
4 6 8 14 8 8 0 13 -10 12 -23 0 -12 -3 -22 -6 -22 -18 1 -23 -4 -11 -11 9 -6
22 -6 35 1 16 9 23 6 39 -13 l20 -24 -8 24 c-5 16 -4 21 3 17 7 -4 10 4 9 21
-2 23 2 28 21 27 12 0 22 3 22 8 0 4 -12 8 -27 9 -27 1 -27 1 8 17 25 12 35
23 33 36 -1 10 1 15 4 11 4 -4 7 -10 8 -13 0 -4 4 -20 9 -35 6 -22 10 -25 17
-15 7 10 11 9 23 -6 21 -27 19 -39 -4 -26 -27 14 -30 13 -24 -11 4 -14 8 -17
13 -9 6 10 13 9 29 -2 11 -8 18 -18 13 -23 -4 -5 -1 -5 6 -1 9 6 10 11 3 20
-6 7 -12 22 -14 34 -2 12 -6 25 -10 28 -15 15 -6 26 10 13 15 -12 16 -12 9 6
-5 15 -4 17 4 8 8 -7 9 -17 3 -28 -7 -12 -4 -28 9 -53 10 -21 17 -45 14 -54
-2 -10 1 -22 8 -27 12 -10 10 -85 -3 -78 -3 2 -21 9 -38 16 -19 7 -33 20 -33
29 0 14 -2 14 -9 3 -5 -8 -18 -12 -30 -8 -18 4 -21 1 -20 -21 1 -17 3 -21 6
-9 6 22 27 21 79 -2 50 -23 94 -60 94 -78 0 -8 4 -12 9 -8 6 3 14 -3 20 -12 5
-10 12 -15 16 -11 3 3 -12 23 -33 44 -34 33 -40 45 -40 79 0 34 2 37 13 22 16
-23 24 -22 18 3 -3 11 -9 18 -13 15 -12 -8 -33 23 -27 40 4 8 2 17 -3 20 -6 4
-10 11 -10 16 0 6 4 8 9 5 5 -3 12 1 15 10 4 10 -6 37 -25 66 -27 41 -30 52
-18 60 10 6 7 7 -11 2 -14 -3 -22 -3 -17 1 4 5 -1 17 -10 28 -18 20 -18 20 7
4 31 -21 50 -22 24 -1 -19 15 -19 16 1 8 11 -4 34 -7 50 -6 23 1 26 -1 15 -8
-23 -15 -5 -12 41 6 26 11 36 20 28 24 -8 5 -5 10 10 15 l21 6 -22 20 -23 20
25 -12 c24 -12 24 -11 10 6 -14 17 -14 18 9 6 13 -7 21 -9 17 -3 -3 5 8 15 24
22 29 12 30 14 14 31 -9 10 -14 22 -11 26 3 5 1 15 -5 23 -8 12 -9 12 -4 -2 8
-25 1 -22 -19 8 -16 24 -16 27 2 47 l18 22 -22 -19 c-13 -11 -23 -15 -23 -11
0 4 -9 0 -20 -10 -26 -24 -25 -17 6 39 15 26 25 49 23 51 -2 2 -19 -24 -37
-56 -18 -33 -27 -57 -20 -53 7 5 9 2 6 -8 -4 -8 -1 -15 7 -15 7 0 11 6 9 12
-3 7 3 18 12 26 16 12 17 12 11 -4 -4 -10 -3 -16 2 -12 5 3 13 0 17 -7 4 -7 3
-10 -1 -5 -5 4 -17 0 -27 -10 -10 -9 -18 -12 -18 -8 0 4 -9 0 -20 -10 -12 -11
-28 -20 -36 -21 -9 -1 -23 -9 -32 -17 -10 -8 -23 -12 -31 -9 -10 3 -11 0 -5
-9 6 -11 3 -10 -11 1 -11 9 -16 10 -11 3 4 -8 2 -13 -4 -13 -6 0 -8 -5 -4 -12
5 -8 0 -7 -11 2 -17 14 -18 13 -12 -3 4 -11 3 -16 -3 -12 -6 3 -10 0 -10 -7
-1 -8 -7 -5 -16 7 -8 11 -18 18 -22 15 -4 -3 -10 15 -13 40 -5 40 -6 41 -7 11
-1 -19 -5 -31 -9 -28 -3 4 -13 1 -22 -5 -12 -10 -12 -8 2 8 9 11 17 25 17 30
0 5 -4 3 -8 -4 -11 -16 -47 25 -47 53 0 13 -6 20 -17 19 -10 -1 -14 4 -11 12
3 8 9 11 14 8 5 -3 6 2 3 11 -6 14 -8 14 -20 -2 -13 -17 -14 -17 -7 1 4 12 3
17 -4 13 -5 -4 -19 0 -29 8 -13 11 -15 15 -4 13 8 -2 18 -7 22 -13 5 -7 8 -6
8 1 0 5 -7 19 -15 30 -10 13 -13 14 -10 3 4 -10 0 -16 -10 -16 -9 0 -14 6 -11
13 3 8 0 17 -7 21 -16 10 -41 14 -32 5z m519 -179 l17 -28 -19 22 c-11 12 -23
19 -27 15 -5 -4 -5 -1 -1 6 10 17 11 16 30 -15z m-77 -100 c-15 -8 -17 -13 -7
-13 12 0 11 -3 -3 -11 -21 -12 -77 6 -77 24 0 7 4 7 12 -1 19 -19 32 -14 17 6
-11 14 -11 15 1 5 20 -18 35 -16 20 2 -11 13 -10 14 5 8 15 -5 17 -3 12 11 -6
15 -5 15 17 -1 l24 -18 -21 -12z m-83 -32 c-2 -3 -12 3 -22 13 -16 17 -16 18
5 5 12 -7 20 -15 17 -18z m-89 -41 c19 -8 19 -9 1 -9 -15 -1 -16 -4 -6 -16 14
-17 8 -31 -8 -21 -6 3 -9 14 -8 24 2 9 -2 20 -8 24 -15 10 4 9 29 -2z m75
-100 c6 -11 8 -20 6 -20 -3 0 -10 9 -16 20 -6 11 -8 20 -6 20 3 0 10 -9 16
-20z m-510 -10 c0 -5 -4 -10 -10 -10 -5 0 -10 5 -10 10 0 6 5 10 10 10 6 0 10
-4 10 -10z m164 -32 c-3 -5 -13 -7 -21 -3 -13 4 -14 3 -3 -10 7 -8 16 -12 21
-9 5 3 18 7 29 9 14 3 18 0 13 -8 -4 -7 -8 -16 -8 -21 0 -5 -10 -15 -22 -23
-21 -14 -22 -13 -18 5 4 24 -19 47 -36 36 -7 -4 -22 -8 -33 -10 -12 -2 -32 -6
-45 -10 -16 -5 -22 -4 -17 4 3 6 -11 20 -34 33 -22 12 -38 25 -35 27 2 3 15
-2 27 -10 30 -19 60 -30 54 -19 -3 4 13 16 36 24 31 13 45 14 55 5 11 -9 12
-7 7 8 -7 19 -7 19 14 0 12 -10 19 -23 16 -28z m-198 -9 c8 -14 -10 -11 -32 6
-18 13 -18 14 4 8 12 -3 25 -9 28 -14z m-129 5 c-3 -3 -12 -4 -19 -1 -8 3 -5
6 6 6 11 1 17 -2 13 -5z m-171 -17 c4 -4 -4 -6 -19 -5 -14 1 -24 5 -21 9 5 9
31 6 40 -4z m134 3 c0 -5 -4 -10 -9 -10 -6 0 -13 5 -16 10 -3 6 1 10 9 10 9 0
16 -4 16 -10z m-960 -20 c0 -5 -2 -10 -4 -10 -3 0 -8 5 -11 10 -3 6 -1 10 4
10 6 0 11 -4 11 -10z m127 4 c-3 -3 -12 -4 -19 -1 -8 3 -5 6 6 6 11 1 17 -2
13 -5z m350 0 c-3 -3 -12 -4 -19 -1 -8 3 -5 6 6 6 11 1 17 -2 13 -5z"/>
<path d="M3285 2640 c3 -5 8 -10 11 -10 2 0 4 5 4 10 0 6 -5 10 -11 10 -5 0
-7 -4 -4 -10z"/>
<path d="M3230 2626 c0 -2 7 -7 16 -10 8 -3 12 -2 9 4 -6 10 -25 14 -25 6z"/>
<path d="M3355 2601 c-3 -5 -2 -12 3 -15 5 -3 9 1 9 9 0 17 -3 19 -12 6z"/>
<path d="M3671 3114 c0 -11 3 -14 6 -6 3 7 2 16 -1 19 -3 4 -6 -2 -5 -13z"/>
<path d="M3856 3113 c-6 -14 -5 -15 5 -6 7 7 10 15 7 18 -3 3 -9 -2 -12 -12z"/>
<path d="M3271 3116 c2 -2 15 -9 29 -15 24 -11 24 -11 6 3 -16 13 -49 24 -35
12z"/>
<path d="M3426 3107 c3 -10 9 -15 12 -12 3 3 0 11 -7 18 -10 9 -11 8 -5 -6z"/>
<path d="M3875 3094 c-9 -15 -12 -23 -6 -20 11 7 35 46 28 46 -3 0 -12 -12
-22 -26z"/>
<path d="M3521 3094 c0 -11 3 -14 6 -6 3 7 2 16 -1 19 -3 4 -6 -2 -5 -13z"/>
<path d="M3763 3060 c-12 -28 -19 -50 -17 -50 7 0 46 91 42 96 -2 2 -14 -19
-25 -46z"/>
<path d="M4004 3078 c-30 -33 -34 -44 -23 -63 4 -5 5 -18 4 -27 -2 -11 2 -15
13 -11 11 5 13 3 7 -6 -6 -10 -3 -11 14 -2 24 13 29 23 7 15 -10 -4 -13 0 -11
13 2 10 4 19 5 21 2 1 3 11 4 21 0 10 10 29 21 42 l20 24 -26 -23 c-15 -13
-26 -32 -25 -44 0 -12 -4 -23 -10 -25 -20 -7 -9 46 16 72 13 14 21 25 19 25
-3 0 -19 -15 -35 -32z"/>
<path d="M3138 3093 c7 -3 16 -2 19 1 4 3 -2 6 -13 5 -11 0 -14 -3 -6 -6z"/>
<path d="M3178 3093 c7 -3 16 -2 19 1 4 3 -2 6 -13 5 -11 0 -14 -3 -6 -6z"/>
<path d="M3741 3093 c-1 -6 -4 -20 -7 -30 -5 -17 -5 -17 6 0 6 10 9 23 6 30
-3 9 -5 9 -5 0z"/>
<path d="M3894 3078 l-19 -23 23 19 c12 11 22 21 22 23 0 8 -8 2 -26 -19z"/>
<path d="M4179 3083 c-13 -16 -12 -17 4 -4 16 13 21 21 13 21 -2 0 -10 -8 -17
-17z"/>
<path d="M4219 3083 c-13 -16 -12 -17 4 -4 16 13 21 21 13 21 -2 0 -10 -8 -17
-17z"/>
<path d="M4254 3078 l-19 -23 23 19 c12 11 22 21 22 23 0 8 -8 2 -26 -19z"/>
<path d="M3696 3059 c-8 -42 0 -50 9 -9 4 17 5 34 2 36 -2 3 -7 -10 -11 -27z"/>
<path d="M3830 3070 c-6 -11 -8 -20 -6 -20 3 0 10 9 16 20 6 11 8 20 6 20 -3
0 -10 -9 -16 -20z"/>
<path d="M4059 3074 c-11 -14 -24 -52 -14 -42 2 1 3 6 2 9 -1 4 7 16 17 28 11
12 17 21 14 21 -3 0 -12 -7 -19 -16z"/>
<path d="M3593 3040 c0 -25 2 -35 4 -22 2 12 2 32 0 45 -2 12 -4 2 -4 -23z"/>
<path d="M3320 3066 c0 -2 7 -7 16 -10 8 -3 12 -2 9 4 -6 10 -25 14 -25 6z"/>
<path d="M3661 3054 c0 -11 3 -14 6 -6 3 7 2 16 -1 19 -3 4 -6 -2 -5 -13z"/>
<path d="M4139 3053 c-13 -16 -12 -17 4 -4 9 7 17 15 17 17 0 8 -8 3 -21 -13z"/>
<path d="M4165 3044 l-30 -26 33 22 c17 12 32 23 32 26 0 7 -4 5 -35 -22z"/>
<path d="M3501 3044 c0 -11 3 -14 6 -6 3 7 2 16 -1 19 -3 4 -6 -2 -5 -13z"/>
<path d="M4209 3043 c-13 -16 -12 -17 4 -4 16 13 21 21 13 21 -2 0 -10 -8 -17
-17z"/>
<path d="M4083 3019 c-35 -22 -46 -37 -15 -20 22 13 58 40 52 41 -3 0 -20 -10
-37 -21z"/>
<path d="M3108 3023 c7 -3 16 -2 19 1 4 3 -2 6 -13 5 -11 0 -14 -3 -6 -6z"/>
<path d="M3328 3023 c7 -3 16 -2 19 1 4 3 -2 6 -13 5 -11 0 -14 -3 -6 -6z"/>
<path d="M3068 3013 c7 -3 16 -2 19 1 4 3 -2 6 -13 5 -11 0 -14 -3 -6 -6z"/>
<path d="M3384 3006 c11 -9 24 -16 30 -16 12 0 7 5 -24 19 -24 11 -24 11 -6
-3z"/>
<path d="M3512 3000 c0 -14 2 -19 5 -12 2 6 2 18 0 25 -3 6 -5 1 -5 -13z"/>
<path d="M3563 2985 c0 -22 2 -30 4 -17 2 12 2 30 0 40 -3 9 -5 -1 -4 -23z"/>
<path d="M3622 2995 c0 -16 2 -22 5 -12 2 9 2 23 0 30 -3 6 -5 -1 -5 -18z"/>
<path d="M3642 2973 c-15 -48 -8 -55 8 -8 7 20 10 38 8 41 -3 2 -10 -13 -16
-33z"/>
<path d="M4134 2994 c-18 -14 -18 -15 4 -4 12 6 22 13 22 15 0 8 -5 6 -26 -11z"/>
<path d="M3491 2984 c0 -11 3 -14 6 -6 3 7 2 16 -1 19 -3 4 -6 -2 -5 -13z"/>
<path d="M4074 2984 c-18 -14 -18 -15 4 -4 12 6 22 13 22 15 0 8 -5 6 -26 -11z"/>
<path d="M3263 2983 c9 -2 25 -2 35 0 9 3 1 5 -18 5 -19 0 -27 -2 -17 -5z"/>
<path d="M3592 2970 c0 -14 2 -19 5 -12 2 6 2 18 0 25 -3 6 -5 1 -5 -13z"/>
<path d="M3745 2980 c-4 -6 -10 -8 -15 -5 -5 3 -11 1 -15 -5 -4 -6 -11 -8 -16
-5 -5 3 -6 -1 -3 -10 7 -16 -15 -18 -27 -2 -3 5 -9 1 -13 -9 -4 -10 -4 -15 0
-11 4 4 13 2 20 -4 9 -7 16 -5 26 9 7 10 21 18 30 16 20 -3 44 21 29 30 -5 4
-12 2 -16 -4z"/>
<path d="M3348 2973 c7 -3 16 -2 19 1 4 3 -2 6 -13 5 -11 0 -14 -3 -6 -6z"/>
<path d="M4084 2964 c-18 -14 -18 -15 4 -4 12 6 22 13 22 15 0 8 -5 6 -26 -11z"/>
<path d="M3148 2963 c7 -3 16 -2 19 1 4 3 -2 6 -13 5 -11 0 -14 -3 -6 -6z"/>
<path d="M3605 2928 c-7 -29 -9 -30 -16 -13 -5 13 -8 15 -8 5 0 -8 3 -21 8
-29 6 -10 12 -3 21 23 7 21 10 40 7 42 -3 3 -8 -10 -12 -28z"/>
<path d="M3078 2943 c7 -3 16 -2 19 1 4 3 -2 6 -13 5 -11 0 -14 -3 -6 -6z"/>
<path d="M3970 2905 c-47 -24 -82 -44 -77 -44 10 -1 167 78 167 84 0 7 4 9
-90 -40z"/>
<path d="M3562 2920 c0 -14 2 -19 5 -12 2 6 2 18 0 25 -3 6 -5 1 -5 -13z"/>
<path d="M3228 2913 c7 -3 16 -2 19 1 4 3 -2 6 -13 5 -11 0 -14 -3 -6 -6z"/>
<path d="M3258 2853 c7 -3 16 -2 19 1 4 3 -2 6 -13 5 -11 0 -14 -3 -6 -6z"/>
<path d="M3218 2843 c7 -3 16 -2 19 1 4 3 -2 6 -13 5 -11 0 -14 -3 -6 -6z"/>
<path d="M3830 2840 c-8 -5 -10 -10 -5 -10 6 0 17 5 25 10 8 5 11 10 5 10 -5
0 -17 -5 -25 -10z"/>
<path d="M3050 2790 c-8 -5 -10 -10 -5 -10 6 0 17 5 25 10 8 5 11 10 5 10 -5
0 -17 -5 -25 -10z"/>
<path d="M3000 2770 c-8 -5 -10 -10 -5 -10 6 0 17 5 25 10 8 5 11 10 5 10 -5
0 -17 -5 -25 -10z"/>
<path d="M2950 2745 c-14 -8 -20 -14 -14 -15 5 0 19 7 30 15 24 18 16 19 -16
0z"/>
<path d="M3110 2740 c-8 -5 -10 -10 -5 -10 6 0 17 5 25 10 8 5 11 10 5 10 -5
0 -17 -5 -25 -10z"/>
<path d="M3560 2700 c0 -11 4 -20 9 -20 5 0 7 9 4 20 -3 11 -7 20 -9 20 -2 0
-4 -9 -4 -20z"/>
<path d="M2559 2673 c-13 -16 -12 -17 4 -4 16 13 21 21 13 21 -2 0 -10 -8 -17
-17z"/>
<path d="M1536 2665 c-11 -8 -16 -15 -10 -15 5 0 18 7 28 15 11 8 16 15 10 15
-5 0 -18 -7 -28 -15z"/>
<path d="M1660 2656 c0 -2 7 -7 16 -10 8 -3 12 -2 9 4 -6 10 -25 14 -25 6z"/>
<path d="M3520 2651 c0 -5 7 -11 15 -15 8 -3 15 -1 15 3 0 5 -7 11 -15 15 -8
3 -15 1 -15 -3z"/>
<path d="M1708 2643 c6 -2 18 -2 25 0 6 3 1 5 -13 5 -14 0 -19 -2 -12 -5z"/>
<path d="M3565 2641 c-2 -5 14 -14 36 -21 22 -8 44 -20 48 -28 6 -10 10 -11
15 -4 4 7 -13 21 -44 36 -27 13 -52 21 -55 17z"/>
<path d="M3716 2633 c-4 -10 -1 -20 9 -25 8 -5 15 -14 15 -21 0 -7 -4 -6 -10
3 -5 8 -11 12 -15 9 -8 -9 42 -59 50 -51 4 4 3 -2 -3 -14 -6 -11 -7 -26 -2
-33 6 -11 9 -10 12 5 3 17 4 17 10 -4 3 -12 2 -20 -2 -17 -11 7 -18 -15 -12
-37 6 -26 21 -22 16 5 -2 12 -1 15 2 7 4 -8 12 -21 18 -29 8 -11 8 -13 -1 -7
-18 10 -16 -5 3 -33 10 -13 17 -37 16 -54 -1 -24 2 -28 9 -17 9 13 10 13 7 1
-3 -8 -10 -17 -18 -19 -9 -3 -11 3 -8 22 3 15 -1 34 -9 43 -13 16 -13 16 -4
-4 7 -14 7 -24 1 -28 -5 -3 -7 -12 -4 -19 3 -8 1 -17 -5 -20 -5 -4 -12 2 -16
13 -3 11 -12 22 -20 25 -8 3 -15 16 -15 28 l1 23 18 -22 c24 -28 31 -29 24 -3
-3 10 -8 18 -12 17 -10 -3 -52 36 -61 58 -7 15 -9 16 -9 4 -1 -9 8 -24 18 -33
20 -18 18 -51 -3 -39 -8 4 -8 3 0 -6 7 -7 9 -21 7 -31 -4 -15 -8 -17 -23 -8
-14 9 -16 17 -9 35 12 31 12 63 1 45 -10 -14 -42 -6 -42 11 0 18 -14 -2 -17
-26 -2 -16 0 -18 6 -8 14 21 50 5 44 -20 -4 -14 -11 -18 -22 -13 -36 15 -54
17 -47 6 4 -6 -2 -20 -14 -32 -11 -11 -17 -20 -14 -20 4 0 0 -8 -7 -17 -13
-17 -13 -17 7 -1 18 16 70 15 60 -1 -3 -4 4 -7 15 -7 11 0 15 4 10 9 -12 12
-3 37 13 37 21 -1 65 -55 56 -70 -7 -11 -11 -11 -24 -1 -9 7 -13 18 -10 25 3
6 -1 2 -10 -9 -8 -11 -20 -26 -27 -33 -6 -7 -8 -16 -4 -20 6 -6 20 11 28 33 2
6 11 4 20 -4 13 -10 15 -17 6 -27 -6 -8 -16 -11 -22 -7 -6 3 -7 1 -3 -6 4 -6
3 -18 -4 -26 -14 -17 -43 -8 -36 11 3 8 0 11 -10 7 -7 -3 -21 -2 -29 1 -12 4
-14 10 -5 25 6 11 16 19 23 17 6 -1 9 -1 4 1 -4 3 -5 8 -2 13 3 4 -4 6 -15 3
-11 -3 -18 -9 -15 -13 3 -5 -6 -21 -20 -36 -27 -30 -33 -43 -10 -24 8 6 23 9
35 5 21 -7 21 -8 4 -26 -11 -12 -25 -17 -38 -13 -15 4 -17 3 -7 -4 10 -7 4
-16 -25 -38 -22 -15 -43 -32 -49 -38 -17 -16 49 25 71 45 11 11 25 19 30 19 5
0 15 9 22 20 14 22 20 24 41 11 12 -8 13 -12 1 -26 -7 -9 -20 -13 -29 -10 -8
3 -12 3 -8 -1 12 -13 -23 -42 -46 -38 -12 2 -15 1 -7 -2 8 -4 23 -11 32 -16
13 -6 16 -5 12 5 -3 8 2 20 11 27 12 10 18 10 30 0 8 -7 12 -17 8 -23 -3 -5
-1 -7 5 -3 16 10 25 -13 12 -30 -10 -11 -16 -11 -26 -3 -8 6 -11 16 -7 23 4 6
-1 5 -10 -3 -9 -7 -17 -16 -17 -19 0 -3 3 -2 7 1 3 4 18 -3 31 -15 14 -13 23
-18 19 -12 -3 5 8 23 24 39 25 22 33 26 39 15 10 -15 -7 -43 -20 -35 -4 3 -10
-2 -13 -9 -8 -21 -54 -49 -67 -41 -8 5 -7 12 2 23 12 15 11 16 -4 4 -20 -16
-42 -7 -34 14 7 17 -22 7 -48 -18 -11 -10 -27 -18 -37 -18 -9 0 -23 -7 -30
-17 -13 -15 -12 -15 9 -4 27 14 73 5 51 -11 -10 -7 -8 -8 8 -3 12 3 24 1 27
-4 8 -12 -31 -34 -48 -28 -7 3 -13 -1 -13 -8 0 -7 7 -12 16 -11 9 1 15 -5 13
-11 -1 -7 5 -13 13 -13 22 0 18 -18 -5 -25 -11 -3 -31 1 -47 12 -15 10 -24 13
-20 6 4 -6 4 -13 0 -16 -5 -2 -2 -2 5 -1 7 2 21 -1 30 -7 14 -9 28 -7 61 11
28 14 47 18 53 12 6 -6 -2 -14 -22 -21 -29 -10 -30 -12 -16 -27 21 -21 20 -31
-5 -39 -12 -4 -18 -13 -15 -20 3 -8 0 -16 -7 -19 -9 -3 -8 -5 1 -5 7 -1 10 -5
7 -11 -8 -13 5 -13 25 0 11 7 11 10 2 10 -7 0 -11 4 -8 9 4 5 0 11 -6 14 -8 3
-2 10 14 17 14 7 24 18 22 25 -3 7 2 15 12 19 12 4 15 2 10 -9 -3 -8 -1 -15 3
-15 11 0 9 -19 -3 -39 -6 -10 -5 -12 2 -7 7 4 12 1 12 -8 0 -8 -5 -18 -10 -21
-6 -4 -8 -11 -5 -16 4 -5 2 -9 -4 -9 -5 0 -9 18 -8 40 2 23 -2 39 -7 37 -6 -2
-9 -22 -8 -44 2 -23 -1 -44 -7 -47 -6 -4 -8 2 -6 13 3 18 1 19 -21 10 -32 -12
-37 -11 -29 1 3 6 1 10 -4 10 -6 0 -11 -11 -11 -25 0 -14 -6 -25 -12 -25 -10
0 -9 -3 1 -9 9 -6 12 -18 7 -36 -5 -21 -10 -25 -19 -16 -6 6 -18 11 -26 11
-13 0 -13 -2 -2 -9 9 -6 11 -14 4 -26 -7 -12 -13 -14 -17 -6 -4 6 -1 11 6 11
9 0 9 3 -2 10 -8 5 -22 10 -30 10 -13 0 -13 -1 0 -11 12 -8 11 -9 -5 -6 -11 2
-19 9 -18 15 2 7 -3 12 -10 12 -8 0 -7 4 3 10 12 8 12 10 -5 11 l-20 0 20 9
c18 8 18 9 -5 8 -14 0 -38 -4 -55 -9 l-30 -8 32 3 c24 2 34 -3 42 -20 7 -17 7
-24 -2 -28 -9 -3 -9 -5 1 -5 6 -1 12 -7 12 -15 0 -7 10 -16 22 -19 21 -6 21
-7 4 -26 -24 -27 -50 -11 -65 41 -9 30 -17 38 -34 37 -17 -1 -18 -2 -4 -6 9
-2 14 -9 11 -15 -4 -6 -2 -8 3 -5 6 4 13 -7 17 -24 9 -46 8 -52 -9 -45 -18 7
-20 -5 -2 -23 10 -11 9 -13 -3 -9 -23 7 -26 48 -3 49 14 0 13 2 -5 10 -13 5
-20 14 -17 20 4 6 -2 5 -14 -3 -17 -10 -18 -14 -6 -21 8 -4 15 -17 15 -28 0
-11 -4 -18 -9 -14 -5 3 -13 0 -17 -6 -4 -8 -3 -9 4 -5 7 4 12 1 12 -9 0 -28
-24 -11 -32 23 -5 18 -13 32 -19 32 -6 0 -7 5 -4 10 6 9 -47 16 -84 11 -7 -2
-10 2 -6 8 3 6 -1 11 -10 11 -9 0 -13 -4 -10 -10 3 -5 -3 -10 -14 -10 -12 0
-21 -4 -21 -8 0 -10 51 -9 67 1 6 4 14 3 18 -3 3 -5 3 -10 -2 -10 -30 -2 -89
-13 -93 -19 -3 -3 -13 -12 -23 -20 -16 -12 -18 -12 -15 0 2 8 11 17 21 21 9 4
17 12 17 18 0 6 -13 4 -32 -5 -32 -16 -32 -16 -12 2 12 10 30 24 40 30 16 11
15 11 -8 3 -26 -9 -32 -6 -29 13 2 11 -17 9 -24 -3 -3 -5 -11 -10 -16 -10 -16
0 1 21 24 29 11 4 16 10 10 14 -5 3 -21 0 -36 -8 -15 -8 -27 -9 -27 -4 0 5 7
12 15 15 8 4 12 10 9 15 -3 5 -13 5 -25 -1 -13 -7 -19 -7 -19 0 0 5 5 10 10
10 6 0 10 4 10 10 0 12 -22 9 -33 -5 -5 -6 -7 -3 -4 7 3 9 1 19 -6 21 -8 3 -3
14 13 32 24 26 24 27 3 14 -13 -8 -23 -16 -23 -19 0 -4 -7 -15 -15 -26 -14
-18 -14 -18 -8 3 4 18 1 22 -14 18 -18 -3 -19 1 -13 36 4 21 4 39 0 39 -12 0
-21 -30 -13 -42 3 -6 1 -8 -5 -4 -5 3 -13 0 -15 -6 -3 -7 -4 3 -1 22 3 24 2
29 -4 16 -10 -23 -41 -30 -48 -11 -3 8 -11 12 -19 9 -7 -3 -15 2 -18 10 -4 9
-15 13 -27 11 -12 -2 -23 2 -27 11 -3 9 -12 13 -22 10 -11 -4 -10 -2 3 9 28
21 38 19 32 -7 -3 -13 -3 -17 0 -10 3 6 10 10 15 6 13 -8 11 10 -3 24 -14 14
-68 16 -68 3 0 -14 -27 -7 -48 12 -10 9 -22 14 -25 11 -4 -4 -14 -1 -23 7 -9
7 -26 14 -38 14 -11 0 -27 4 -34 9 -7 4 -23 9 -35 11 -47 7 -70 15 -86 28 -9
8 -30 14 -48 12 -18 -1 -30 2 -27 7 3 4 -2 11 -11 15 -10 3 -21 0 -26 -8 -6
-10 -9 -10 -9 -2 0 7 -6 10 -14 7 -8 -3 -17 0 -22 7 -5 8 -3 10 7 4 12 -7 12
-6 0 6 -10 11 -15 11 -18 1 -3 -6 -10 -9 -16 -5 -14 9 -57 11 -62 2 -3 -3 37
-16 88 -29 217 -53 455 -145 586 -227 89 -56 204 -162 256 -237 l37 -54 27 29
c16 16 32 25 36 21 5 -4 6 0 2 10 -4 11 1 18 15 22 12 3 25 3 30 0 14 -9 9
-53 -8 -62 -9 -5 -15 -14 -13 -21 6 -18 252 108 344 176 91 67 191 171 230
237 25 43 26 74 3 60 -7 -4 -8 -2 -4 4 7 12 -6 17 -17 6 -10 -10 4 -34 17 -27
6 3 2 -3 -8 -15 -20 -23 -32 -30 -21 -12 3 6 1 10 -6 10 -8 0 -8 4 1 15 10 12
10 15 -1 15 -8 1 0 12 16 25 17 14 25 25 19 25 -14 0 -15 48 -2 56 5 3 9 0 7
-7 -3 -26 1 -52 8 -46 10 10 10 57 0 57 -4 0 -5 5 -2 10 4 6 2 17 -5 25 -7 9
-8 15 0 20 5 3 11 4 11 1 1 -3 3 -10 4 -16 1 -5 3 -17 4 -26 0 -8 5 -13 10 -9
6 3 6 17 -1 35 -7 22 -7 34 1 44 6 8 8 27 4 46 -4 25 -3 31 6 26 7 -5 10 -14
7 -22 -3 -7 -1 -16 4 -19 5 -3 3 -17 -5 -31 -9 -19 -11 -34 -4 -51 7 -18 5
-28 -6 -39 -18 -19 -19 -26 -2 -43 7 -8 7 -11 1 -8 -7 4 -17 0 -25 -9 -10 -12
-9 -18 4 -31 14 -14 17 -13 32 23 9 21 23 66 32 99 22 84 13 282 -17 385 -21
71 -103 260 -113 260 -3 0 -8 -8 -11 -17z m-52 -318 c-6 -15 -35 -20 -47 -9
-3 4 -2 15 4 25 8 15 14 17 29 9 11 -6 17 -16 14 -25z m92 -20 c-9 -25 -36 -1
-29 26 5 18 7 19 21 6 8 -9 12 -23 8 -32z m65 -23 c0 -14 2 -13 9 3 6 15 7 11
7 -17 -1 -21 -5 -38 -10 -38 -4 0 -5 -9 -2 -20 4 -11 2 -20 -4 -20 -6 0 -11
-9 -11 -20 0 -11 -4 -20 -8 -20 -13 0 -11 -34 2 -42 8 -5 7 -11 -2 -20 -9 -9
-12 -9 -12 2 0 7 -11 28 -26 47 -14 18 -22 33 -18 33 4 0 -1 6 -11 14 -12 8
-16 19 -12 31 6 14 10 15 22 5 8 -7 13 -16 10 -20 -3 -4 2 -11 11 -14 10 -4
14 -13 10 -24 -4 -10 2 -7 13 8 24 30 35 80 21 94 -13 13 -13 49 0 41 6 -3 10
-14 11 -23z m-23 -15 c14 -23 15 -29 3 -36 -7 -5 -11 -13 -8 -18 3 -5 2 -15
-3 -23 -7 -12 -10 -11 -16 3 -4 10 -2 23 5 30 15 15 14 44 -2 44 -9 0 -12 -9
-9 -24 4 -22 -11 -32 -22 -14 -7 11 16 72 27 68 5 -1 16 -15 25 -30z m55 -57
c-3 -12 -8 -19 -11 -16 -5 6 5 36 12 36 2 0 2 -9 -1 -20z m-126 -36 c1 -5 -2
-16 -7 -24 -12 -20 -35 2 -26 25 6 17 27 16 33 -1z m122 -10 c1 11 3 17 6 14
4 -3 3 -18 -1 -32 l-6 -27 -13 23 c-6 13 -9 27 -7 32 3 5 9 1 13 -10 7 -19 8
-19 8 0z m-100 -41 c-15 -17 -32 -2 -23 21 5 13 9 14 20 5 11 -9 12 -15 3 -26z
m-54 17 c4 -6 1 -19 -7 -28 -12 -15 -11 -16 5 -3 24 19 45 0 22 -19 -13 -11
-19 -9 -40 10 -19 18 -22 26 -14 37 14 16 26 17 34 3z m81 -48 c10 -25 8 -32
-13 -52 -13 -12 -27 -20 -30 -16 -4 3 3 15 15 26 22 20 31 47 13 35 -12 -7
-24 12 -16 25 10 17 20 11 31 -18z m-51 -92 c-4 -6 -13 -9 -21 -6 -8 3 -11 0
-7 -10 5 -13 8 -13 24 2 18 16 19 16 19 0 0 -9 -7 -19 -15 -22 -9 -4 -13 -13
-10 -24 3 -10 -2 -23 -12 -31 -15 -13 -16 -12 -11 8 3 12 3 22 -1 21 -19 -2
-22 4 -10 19 10 11 10 14 2 9 -7 -4 -18 -4 -24 0 -6 4 2 17 23 34 31 26 59 26
43 0z m-123 1 c-1 -7 2 -10 8 -6 18 11 32 -5 19 -21 -10 -12 -9 -13 4 -9 22 9
31 -12 9 -24 -14 -8 -23 -5 -38 12 -10 12 -17 26 -16 30 1 5 -2 6 -7 3 -5 -3
-17 -3 -27 1 -16 6 -16 7 2 20 22 16 50 12 46 -6z m168 5 c0 -8 -4 -17 -9 -20
-10 -7 -23 19 -14 28 11 11 23 6 23 -8z m-23 -56 c-3 -11 0 -20 6 -20 6 0 1
-10 -10 -22 -13 -16 -19 -35 -17 -60 1 -21 -2 -38 -6 -38 -3 0 -7 6 -7 13 0 6
-4 26 -7 44 -5 26 -2 34 15 43 15 8 17 15 10 24 -7 9 -7 16 1 24 17 17 21 15
15 -8z m-137 -19 c0 -12 -39 -25 -48 -16 -7 7 17 25 36 25 6 0 12 -4 12 -9z
m65 -11 c3 -11 3 -25 -1 -31 -4 -7 -3 -9 3 -6 6 4 13 -3 16 -15 4 -13 1 -26
-6 -30 -9 -6 -8 -8 2 -8 8 0 11 -3 7 -7 -3 -4 4 -13 16 -21 13 -7 15 -11 6 -8
-12 3 -18 0 -18 -9 0 -8 -4 -15 -9 -15 -6 0 -8 9 -6 20 2 11 -1 20 -7 20 -6 0
-9 3 -6 6 4 3 0 21 -8 41 -12 27 -12 38 -3 49 10 12 9 13 -7 7 -10 -3 -29 -13
-41 -20 -13 -9 -23 -10 -27 -4 -4 6 10 19 31 30 48 25 50 25 58 1z m-25 -69
c0 -5 -7 -11 -15 -15 -15 -5 -20 5 -8 17 9 10 23 9 23 -2z m-59 -148 c-10 -4
-8 -9 10 -20 l24 -14 -24 7 c-16 4 -21 3 -17 -5 5 -7 1 -8 -9 -4 -13 5 -14 7
-3 14 10 7 10 9 -2 9 -13 0 -13 1 0 10 8 5 20 9 25 9 6 0 4 -3 -4 -6z m-116
-133 c4 -6 -5 -5 -19 2 -14 6 -26 15 -26 20 0 10 36 -7 45 -22z m-214 -36 c7
-9 15 -27 16 -40 3 -19 0 -22 -14 -18 -17 5 -17 5 -1 -8 15 -13 15 -15 -1 -25
-14 -9 -17 -7 -19 15 -3 34 -22 54 -44 49 -28 -8 -21 10 10 27 35 19 37 19 53
0z m-101 -29 c-7 -8 -9 -15 -4 -15 5 -1 -1 -9 -14 -20 -19 -15 -26 -17 -37 -7
-7 7 -11 16 -8 21 3 4 9 3 13 -3 3 -7 15 -9 24 -5 17 7 17 7 0 17 -17 10 -17
11 1 18 31 12 38 10 25 -6z"/>
<path d="M1768 2633 c7 -3 16 -2 19 1 4 3 -2 6 -13 5 -11 0 -14 -3 -6 -6z"/>
<path d="M1815 2614 c-25 -12 -26 -14 -5 -9 14 4 42 7 64 7 26 0 34 3 25 9
-20 12 -49 10 -84 -7z"/>
<path d="M3080 2601 c13 -9 12 -11 -3 -11 -11 0 -15 -5 -11 -11 4 -8 -1 -9
-17 -4 -18 5 -20 4 -10 -4 12 -8 9 -11 -12 -17 -16 -3 -26 -11 -24 -18 4 -13
27 -15 26 -2 0 9 69 55 84 56 5 0 5 -5 1 -12 -5 -7 -3 -8 5 -3 16 9 4 21 -29
30 -19 5 -21 4 -10 -4z"/>
<path d="M1888 2593 c7 -3 16 -2 19 1 4 3 -2 6 -13 5 -11 0 -14 -3 -6 -6z"/>
<path d="M3604 2586 c-9 -10 -1 -18 38 -34 31 -13 45 -16 38 -7 -6 7 -22 16
-35 19 -13 3 -25 12 -27 20 -2 11 -5 11 -14 2z"/>
<path d="M2740 2586 c0 -2 11 -6 25 -8 13 -3 22 -1 19 3 -5 9 -44 13 -44 5z"/>
<path d="M2930 2580 c8 -5 24 -10 35 -10 17 0 17 2 5 10 -8 5 -24 10 -35 10
-17 0 -17 -2 -5 -10z"/>
<path d="M2794 2566 c-12 -5 -27 -18 -33 -28 -14 -23 -10 -23 18 1 13 11 28
22 34 24 7 2 10 6 7 9 -3 2 -15 0 -26 -6z"/>
<path d="M2095 2560 c27 -12 43 -12 25 0 -8 5 -22 9 -30 9 -10 0 -8 -3 5 -9z"/>
<path d="M2918 2563 c7 -3 16 -2 19 1 4 3 -2 6 -13 5 -11 0 -14 -3 -6 -6z"/>
<path d="M3527 2550 c-3 -11 -1 -20 4 -20 5 0 9 9 9 20 0 11 -2 20 -4 20 -2 0
-6 -9 -9 -20z"/>
<path d="M2958 2553 c7 -3 16 -2 19 1 4 3 -2 6 -13 5 -11 0 -14 -3 -6 -6z"/>
<path d="M3491 2529 c-14 -42 -7 -49 9 -9 7 17 10 33 8 36 -3 3 -11 -9 -17
-27z"/>
<path d="M2218 2543 c7 -3 16 -2 19 1 4 3 -2 6 -13 5 -11 0 -14 -3 -6 -6z"/>
<path d="M2863 2524 l-28 -25 33 22 c17 13 32 24 32 26 0 8 -11 1 -37 -23z"/>
<path d="M3273 2544 c4 -4 1 -14 -6 -22 -10 -13 -9 -14 11 -3 27 14 27 17 5
25 -10 4 -14 4 -10 0z"/>
<path d="M3401 2524 l-22 -26 23 8 c21 6 22 6 8 -12 -14 -18 -14 -18 8 0 26
23 29 38 5 29 -16 -6 -16 -5 -4 10 22 27 7 20 -18 -9z"/>
<path d="M2283 2533 c15 -2 37 -2 50 0 12 2 0 4 -28 4 -27 0 -38 -2 -22 -4z"/>
<path d="M2626 2525 c-3 -8 -3 -15 0 -15 3 0 12 7 20 15 13 13 13 15 1 15 -8
0 -17 -7 -21 -15z"/>
<path d="M2970 2533 c5 -2 8 -9 4 -14 -3 -5 0 -9 6 -9 15 0 7 23 -8 26 -7 1
-8 0 -2 -3z"/>
<path d="M3090 2530 c-8 -5 -11 -10 -6 -10 6 0 1 -7 -10 -16 -19 -15 -19 -16
1 -9 11 4 28 9 37 12 9 3 14 11 11 19 -6 16 -13 17 -33 4z"/>
<path d="M3163 2490 c-82 -43 -91 -49 -76 -61 14 -12 16 -12 8 0 -6 11 -4 13
9 8 10 -4 15 -3 11 3 -3 5 21 23 54 40 66 33 76 36 65 18 -4 -6 -3 -8 3 -5 6
4 13 16 16 27 3 11 4 19 4 19 -1 -1 -44 -23 -94 -49z"/>
<path d="M2138 2523 c6 -2 18 -2 25 0 6 3 1 5 -13 5 -14 0 -19 -2 -12 -5z"/>
<path d="M2928 2523 c7 -3 16 -2 19 1 4 3 -2 6 -13 5 -11 0 -14 -3 -6 -6z"/>
<path d="M3458 2523 c7 -3 16 -2 19 1 4 3 -2 6 -13 5 -11 0 -14 -3 -6 -6z"/>
<path d="M3323 2509 c-6 -6 -9 -17 -6 -24 3 -9 -2 -12 -15 -8 -11 2 -23 0 -26
-5 -4 -6 3 -8 16 -4 16 4 19 2 13 -9 -5 -8 3 -4 16 7 13 12 31 24 39 28 8 3 2
4 -14 0 -26 -5 -28 -3 -17 10 15 18 11 22 -6 5z"/>
<path d="M2278 2503 c6 -2 18 -2 25 0 6 3 1 5 -13 5 -14 0 -19 -2 -12 -5z"/>
<path d="M2704 2488 l-19 -23 25 20 c14 11 27 21 29 22 2 2 0 3 -6 3 -5 0 -18
-10 -29 -22z"/>
<path d="M2942 2498 c3 -7 12 -14 22 -14 13 -2 13 -1 1 3 -8 2 -13 9 -10 14 4
5 1 9 -5 9 -7 0 -10 -6 -8 -12z"/>
<path d="M3260 2489 c-22 -18 -22 -19 -3 -10 12 6 25 16 28 21 9 15 3 12 -25
-11z"/>
<path d="M3430 2476 c-15 -21 -30 -32 -40 -29 -9 3 -23 -2 -31 -10 -8 -7 -21
-12 -29 -10 -13 4 -13 3 0 -6 10 -7 19 -6 31 5 19 17 43 19 34 2 -4 -7 4 -2
17 12 13 14 30 24 40 22 9 -2 19 1 22 7 4 5 -3 7 -15 4 -19 -5 -20 -4 -10 16
18 32 6 25 -19 -13z"/>
<path d="M3733 2486 c7 -13 15 -22 19 -20 8 5 -13 44 -23 44 -4 0 -2 -11 4
-24z"/>
<path d="M2413 2493 c9 -2 23 -2 30 0 6 3 -1 5 -18 5 -16 0 -22 -2 -12 -5z"/>
<path d="M3601 2483 c-1 -16 5 -23 17 -23 10 0 13 3 6 8 -6 4 -14 14 -17 22
-4 10 -6 8 -6 -7z"/>
<path d="M2158 2483 c12 -2 30 -2 40 0 9 3 -1 5 -23 4 -22 0 -30 -2 -17 -4z"/>
<path d="M2268 2483 c6 -2 18 -2 25 0 6 3 1 5 -13 5 -14 0 -19 -2 -12 -5z"/>
<path d="M3015 2480 c-11 -5 -15 -9 -10 -10 6 0 -1 -10 -15 -21 l-25 -20 25
12 c14 7 32 12 40 11 11 -1 11 0 2 4 -10 5 -9 9 5 20 20 15 9 17 -22 4z"/>
<path d="M2785 2470 c-16 -7 -17 -9 -3 -9 9 -1 20 4 23 9 7 11 7 11 -20 0z"/>
<path d="M2900 2470 c-18 -12 -2 -12 25 0 13 6 15 9 5 9 -8 0 -22 -4 -30 -9z"/>
<path d="M3349 2463 c-13 -16 -12 -17 4 -4 9 7 17 15 17 17 0 8 -8 3 -21 -13z"/>
<path d="M3550 2471 c0 -5 9 -7 20 -4 11 3 20 7 20 9 0 2 -9 4 -20 4 -11 0
-20 -4 -20 -9z"/>
<path d="M2340 2460 c-8 -5 -10 -10 -5 -10 6 0 17 5 25 10 8 5 11 10 5 10 -5
0 -17 -5 -25 -10z"/>
<path d="M3219 2463 c-1 -5 -1 -12 0 -17 1 -5 -6 -6 -15 -2 -14 5 -15 4 -4 -8
10 -14 15 -13 36 1 30 19 30 23 2 15 -14 -3 -19 -2 -14 6 4 7 5 12 2 12 -3 0
-7 -3 -7 -7z"/>
<path d="M3646 2462 c-7 -12 7 -27 27 -28 21 -2 21 -2 -3 18 -10 10 -21 14
-24 10z"/>
<path d="M2630 2440 c-8 -5 -10 -10 -5 -10 6 0 17 5 25 10 8 5 11 10 5 10 -5
0 -17 -5 -25 -10z"/>
<path d="M3269 2433 c-13 -16 -12 -17 4 -4 16 13 21 21 13 21 -2 0 -10 -8 -17
-17z"/>
<path d="M3591 2443 c-1 -6 -4 -18 -7 -26 -4 -12 0 -14 16 -10 12 3 17 9 12
12 -5 3 -12 13 -15 21 -3 8 -6 10 -6 3z"/>
<path d="M2388 2433 c7 -3 16 -2 19 1 4 3 -2 6 -13 5 -11 0 -14 -3 -6 -6z"/>
<path d="M2735 2430 c-13 -6 -15 -9 -5 -9 8 0 22 4 30 9 18 12 2 12 -25 0z"/>
<path d="M2850 2430 c-8 -5 -12 -11 -10 -14 3 -2 14 2 24 10 22 15 10 19 -14
4z"/>
<path d="M3030 2429 c-12 -8 -9 -9 10 -4 l25 6 -25 -20 c-14 -11 -31 -21 -37
-21 -7 0 -13 -4 -13 -10 0 -5 -8 -7 -17 -4 -15 5 -15 4 -4 -4 12 -9 9 -14 -17
-29 -18 -10 -32 -21 -32 -25 0 -4 13 1 30 10 16 9 30 20 30 24 0 4 8 5 18 2
14 -5 14 -4 3 4 -12 8 -5 15 32 33 36 18 44 26 35 36 -13 16 -18 16 -38 2z"/>
<path d="M3170 2436 c0 -2 8 -10 18 -17 15 -13 16 -12 3 4 -13 16 -21 21 -21
13z"/>
<path d="M2198 2423 c7 -3 16 -2 19 1 4 3 -2 6 -13 5 -11 0 -14 -3 -6 -6z"/>
<path d="M2566 2422 c-3 -5 1 -9 9 -9 8 0 12 4 9 9 -3 4 -7 8 -9 8 -2 0 -6 -4
-9 -8z"/>
<path d="M2920 2403 c-46 -45 -59 -56 -97 -79 -21 -13 -34 -24 -30 -24 11 0
56 29 95 62 18 15 40 28 49 28 9 0 13 3 10 7 -4 3 -2 12 4 20 19 22 -5 12 -31
-14z"/>
<path d="M3155 2421 c6 -11 4 -13 -7 -8 -17 6 -19 -16 -3 -30 4 -5 5 -2 0 6
-6 11 -4 13 8 8 23 -9 30 8 10 24 -14 12 -16 12 -8 0z"/>
<path d="M3267 2405 c-20 -12 -34 -24 -31 -28 3 -3 20 4 38 16 17 12 33 23 35
24 2 2 2 5 0 6 -2 2 -21 -6 -42 -18z"/>
<path d="M2431 2411 c-10 -6 1 -8 30 -4 24 3 46 7 48 9 10 9 -65 3 -78 -5z"/>
<path d="M3420 2404 c-9 -10 -9 -14 -1 -14 6 0 11 4 11 10 0 5 7 7 15 4 8 -4
15 -4 15 -1 0 13 -30 14 -40 1z"/>
<path d="M3476 2411 c-4 -5 3 -7 14 -4 23 6 26 13 6 13 -8 0 -17 -4 -20 -9z"/>
<path d="M2295 2400 l-40 -7 43 -2 c23 0 42 4 42 9 0 6 -1 9 -2 9 -2 -1 -21
-5 -43 -9z"/>
<path d="M2700 2400 c-9 -6 -10 -10 -3 -10 6 0 15 5 18 10 8 12 4 12 -15 0z"/>
<path d="M3101 2401 c-11 -7 -11 -9 0 -13 8 -3 -3 -14 -29 -29 -59 -34 -53
-43 7 -11 34 18 47 30 40 38 -5 6 -6 14 -2 17 9 10 1 8 -16 -2z"/>
<path d="M2188 2393 c7 -3 16 -2 19 1 4 3 -2 6 -13 5 -11 0 -14 -3 -6 -6z"/>
<path d="M3205 2391 c-3 -5 -1 -12 5 -16 6 -4 7 -11 4 -17 -4 -7 -2 -8 5 -4 8
6 9 12 2 20 -6 7 -8 16 -4 19 3 4 4 7 0 7 -3 0 -8 -4 -12 -9z"/>
<path d="M2470 2386 c0 -2 11 -6 25 -8 13 -3 22 -1 19 3 -5 9 -44 13 -44 5z"/>
<path d="M2645 2380 c-13 -6 -15 -9 -5 -9 8 0 22 4 30 9 18 12 2 12 -25 0z"/>
<path d="M3286 2371 c-14 -15 -15 -21 -4 -27 7 -4 10 -3 5 1 -4 5 0 17 10 27
9 10 14 18 11 18 -3 0 -13 -9 -22 -19z"/>
<path d="M3378 2383 c7 -3 16 -2 19 1 4 3 -2 6 -13 5 -11 0 -14 -3 -6 -6z"/>
<path d="M3449 2373 c-13 -16 -12 -17 4 -4 16 13 21 21 13 21 -2 0 -10 -8 -17
-17z"/>
<path d="M2200 2369 c-21 -6 -19 -7 13 -6 20 0 37 1 37 3 0 7 -29 10 -50 3z"/>
<path d="M2769 2363 c-13 -16 -12 -17 4 -4 16 13 21 21 13 21 -2 0 -10 -8 -17
-17z"/>
<path d="M3327 2365 c-8 -8 -17 -12 -19 -10 -3 3 -5 -2 -5 -10 0 -12 6 -10 26
7 14 13 28 24 30 26 2 1 -1 2 -7 2 -6 0 -17 -7 -25 -15z"/>
<path d="M2480 2359 c0 -5 11 -9 25 -9 14 0 25 2 25 4 0 2 -11 6 -25 8 -14 3
-25 1 -25 -3z"/>
<path d="M2553 2363 c9 -2 23 -2 30 0 6 3 -1 5 -18 5 -16 0 -22 -2 -12 -5z"/>
<path d="M3164 2345 c0 -13 3 -22 7 -19 8 4 6 30 -2 38 -3 3 -5 -5 -5 -19z"/>
<path d="M3480 2360 c-21 -7 -21 -8 -5 -9 11 0 27 4 35 9 18 11 5 11 -30 0z"/>
<path d="M3568 2363 c6 -2 18 -2 25 0 6 3 1 5 -13 5 -14 0 -19 -2 -12 -5z"/>
<path d="M3139 2358 c-6 -20 -6 -39 0 -42 4 -3 7 6 7 20 0 20 -4 32 -7 22z"/>
<path d="M2368 2343 c18 -2 45 -2 60 0 15 2 0 4 -33 4 -33 0 -45 -2 -27 -4z"/>
<path d="M3195 2310 c-33 -21 -65 -43 -70 -48 -6 -4 -16 -7 -22 -5 -6 2 -14 0
-17 -5 -17 -27 109 33 160 77 7 5 15 7 20 3 4 -4 4 -1 0 6 -4 6 -8 12 -9 11
-1 0 -29 -18 -62 -39z"/>
<path d="M3415 2340 c-13 -6 -15 -9 -5 -9 8 0 22 4 30 9 18 12 2 12 -25 0z"/>
<path d="M2563 2333 c9 -2 23 -2 30 0 6 3 -1 5 -18 5 -16 0 -22 -2 -12 -5z"/>
<path d="M3456 2311 c-26 -27 -27 -29 -7 -24 12 3 19 8 16 11 -3 3 2 14 12 24
27 30 9 20 -21 -11z"/>
<path d="M2668 2323 c6 -2 18 -2 25 0 6 3 1 5 -13 5 -14 0 -19 -2 -12 -5z"/>
<path d="M2990 2320 c-12 -8 -12 -10 -1 -10 11 0 10 -4 -3 -19 -17 -19 -17
-19 2 -14 11 3 19 12 17 21 -1 10 3 20 9 24 6 5 7 8 1 8 -5 0 -17 -5 -25 -10z"/>
<path d="M3320 2309 c-14 -10 -30 -23 -36 -28 -7 -6 -15 -7 -20 -3 -4 4 -4 1
0 -6 6 -10 15 -7 39 11 18 13 39 26 47 29 7 2 10 7 4 10 -5 3 -20 -2 -34 -13z"/>
<path d="M3050 2310 c-8 -5 -10 -10 -5 -10 6 0 17 5 25 10 8 5 11 10 5 10 -5
0 -17 -5 -25 -10z"/>
<path d="M3065 2286 c-27 -17 -51 -38 -53 -45 -2 -7 11 -2 28 12 16 14 39 28
50 32 11 3 20 11 20 16 0 6 5 7 12 3 7 -4 8 -3 4 4 -4 7 -8 12 -9 11 -1 -1
-24 -15 -52 -33z"/>
<path d="M3520 2310 c-9 -6 -10 -10 -3 -10 6 0 15 5 18 10 8 12 4 12 -15 0z"/>
<path d="M2535 2300 l-30 -8 27 -1 c15 0 30 4 33 9 3 6 5 9 3 9 -2 -1 -16 -5
-33 -9z"/>
<path d="M2588 2303 c7 -3 16 -2 19 1 4 3 -2 6 -13 5 -11 0 -14 -3 -6 -6z"/>
<path d="M2158 2293 c7 -3 16 -2 19 1 4 3 -2 6 -13 5 -11 0 -14 -3 -6 -6z"/>
<path d="M2695 2290 c-3 -5 1 -10 10 -10 9 0 13 5 10 10 -3 6 -8 10 -10 10 -2
0 -7 -4 -10 -10z"/>
<path d="M2648 2283 c6 -2 18 -2 25 0 6 3 1 5 -13 5 -14 0 -19 -2 -12 -5z"/>
<path d="M2338 2273 c7 -3 16 -2 19 1 4 3 -2 6 -13 5 -11 0 -14 -3 -6 -6z"/>
<path d="M2608 2273 c7 -3 16 -2 19 1 4 3 -2 6 -13 5 -11 0 -14 -3 -6 -6z"/>
<path d="M3345 2270 c-4 -6 -29 -22 -57 -36 -58 -29 -161 -95 -166 -106 -2 -4
-9 -6 -15 -4 -7 1 -9 1 -4 -1 4 -3 4 -9 1 -15 -3 -5 15 6 40 26 25 19 55 37
66 41 11 3 20 11 20 16 0 5 3 8 8 7 9 -3 106 53 110 64 2 5 9 5 14 2 7 -4 8
-2 4 4 -9 15 -13 15 -21 2z"/>
<path d="M2178 2263 c6 -2 18 -2 25 0 6 3 1 5 -13 5 -14 0 -19 -2 -12 -5z"/>
<path d="M2648 2258 c6 -6 18 -8 28 -6 14 3 12 5 -9 10 -19 3 -25 2 -19 -4z"/>
<path d="M2936 2254 c-5 -14 -4 -15 9 -4 17 14 19 20 6 20 -5 0 -12 -7 -15
-16z"/>
<path d="M3243 2255 c0 -8 4 -12 9 -9 5 3 6 10 3 15 -9 13 -12 11 -12 -6z"/>
<path d="M3394 2248 l-19 -23 23 19 c12 11 22 21 22 23 0 8 -8 2 -26 -19z"/>
<path d="M2468 2253 c6 -2 18 -2 25 0 6 3 1 5 -13 5 -14 0 -19 -2 -12 -5z"/>
<path d="M3532 2229 c-13 -16 -33 -30 -45 -30 -19 -1 -19 -2 -3 -6 11 -3 30 6
50 25 17 16 38 32 46 35 10 4 9 5 -5 6 -11 0 -30 -13 -43 -30z"/>
<path d="M2608 2243 c6 -2 18 -2 25 0 6 3 1 5 -13 5 -14 0 -19 -2 -12 -5z"/>
<path d="M2768 2243 c6 -2 18 -2 25 0 6 3 1 5 -13 5 -14 0 -19 -2 -12 -5z"/>
<path d="M2970 2240 c-8 -5 -10 -10 -5 -10 6 0 17 5 25 10 8 5 11 10 5 10 -5
0 -17 -5 -25 -10z"/>
<path d="M3199 2248 c-5 -18 -6 -38 -1 -34 7 8 12 36 6 36 -2 0 -4 -1 -5 -2z"/>
<path d="M3445 2240 c-13 -5 -14 -9 -5 -9 8 0 24 4 35 9 13 5 14 9 5 9 -8 0
-24 -4 -35 -9z"/>
<path d="M3040 2230 c-8 -5 -10 -10 -5 -10 6 0 17 5 25 10 8 5 11 10 5 10 -5
0 -17 -5 -25 -10z"/>
<path d="M2168 2223 c7 -3 16 -2 19 1 4 3 -2 6 -13 5 -11 0 -14 -3 -6 -6z"/>
<path d="M2670 2226 c0 -2 11 -6 25 -8 13 -3 22 -1 19 3 -5 9 -44 13 -44 5z"/>
<path d="M3065 2210 c-10 -11 -26 -22 -35 -25 -10 -3 -21 -12 -23 -20 -4 -8 9
-4 30 11 20 13 39 24 43 24 4 0 7 7 7 15 0 19 0 19 -22 -5z"/>
<path d="M3165 2221 c-3 -5 -2 -12 3 -15 5 -3 9 1 9 9 0 17 -3 19 -12 6z"/>
<path d="M2395 2210 c-3 -6 1 -7 9 -4 18 7 21 14 7 14 -6 0 -13 -4 -16 -10z"/>
<path d="M2628 2213 c6 -2 18 -2 25 0 6 3 1 5 -13 5 -14 0 -19 -2 -12 -5z"/>
<path d="M2947 2198 c-21 -11 -36 -22 -34 -25 7 -6 77 29 77 39 0 4 -1 7 -2 7
-2 -1 -20 -11 -41 -21z"/>
<path d="M3270 2170 c-47 -27 -90 -53 -96 -59 -7 -5 -14 -8 -16 -5 -3 2 -5 -2
-5 -10 0 -11 9 -8 31 8 17 13 61 40 98 60 37 21 70 42 74 47 7 12 11 14 -86
-41z"/>
<path d="M3419 2203 c-13 -16 -12 -17 4 -4 9 7 17 15 17 17 0 8 -8 3 -21 -13z"/>
<path d="M2310 2195 c0 -8 2 -15 4 -15 2 0 6 7 10 15 3 8 1 15 -4 15 -6 0 -10
-7 -10 -15z"/>
<path d="M2710 2200 c-14 -4 -20 -8 -13 -9 6 -1 19 -4 29 -8 11 -4 15 -3 10 5
-3 6 3 12 16 15 19 3 19 4 3 5 -11 0 -31 -4 -45 -8z"/>
<path d="M2835 2200 c-3 -5 -1 -10 4 -10 6 0 11 5 11 10 0 6 -2 10 -4 10 -3 0
-8 -4 -11 -10z"/>
<path d="M2868 2203 c7 -3 16 -2 19 1 4 3 -2 6 -13 5 -11 0 -14 -3 -6 -6z"/>
<path d="M3131 2196 c-6 -8 -25 -19 -41 -26 -16 -7 -27 -16 -24 -21 5 -8 65
28 72 44 2 4 9 4 14 1 7 -4 8 -2 4 4 -9 15 -11 15 -25 -2z"/>
<path d="M2208 2193 c7 -3 16 -2 19 1 4 3 -2 6 -13 5 -11 0 -14 -3 -6 -6z"/>
<path d="M3385 2180 c-4 -6 -38 -26 -76 -45 -94 -48 -88 -53 9 -7 43 20 78 43
78 50 1 15 -3 15 -11 2z"/>
<path d="M2618 2173 c6 -2 18 -2 25 0 6 3 1 5 -13 5 -14 0 -19 -2 -12 -5z"/>
<path d="M2758 2173 c7 -3 16 -2 19 1 4 3 -2 6 -13 5 -11 0 -14 -3 -6 -6z"/>
<path d="M3459 2163 c-13 -16 -12 -17 4 -4 16 13 21 21 13 21 -2 0 -10 -8 -17
-17z"/>
<path d="M2695 2160 c3 -5 8 -10 11 -10 2 0 4 5 4 10 0 6 -5 10 -11 10 -5 0
-7 -4 -4 -10z"/>
<path d="M2845 2160 c-28 -7 -28 -8 -5 -9 14 0 32 4 40 9 17 11 8 11 -35 0z"/>
<path d="M3525 2150 c-4 -6 -11 -7 -17 -4 -6 4 -8 2 -5 -4 4 -5 16 -8 27 -5
11 3 17 9 14 14 -7 12 -11 11 -19 -1z"/>
<path d="M2520 2135 c-7 -9 -8 -15 -2 -15 5 0 12 7 16 15 3 8 4 15 2 15 -2 0
-9 -7 -16 -15z"/>
<path d="M2972 2141 c-11 -7 -11 -9 0 -14 9 -3 15 1 15 9 0 8 -1 14 -1 14 -1
0 -7 -4 -14 -9z"/>
<path d="M3020 2140 c-8 -5 -10 -10 -5 -10 6 0 17 5 25 10 8 5 11 10 5 10 -5
0 -17 -5 -25 -10z"/>
<path d="M3321 2088 c-62 -32 -108 -58 -102 -58 6 0 52 21 103 46 50 25 100
47 111 50 26 4 31 10 15 16 -7 2 -64 -22 -127 -54z"/>
<path d="M2153 2123 c9 -2 23 -2 30 0 6 3 -1 5 -18 5 -16 0 -22 -2 -12 -5z"/>
<path d="M2218 2123 c7 -3 16 -2 19 1 4 3 -2 6 -13 5 -11 0 -14 -3 -6 -6z"/>
<path d="M2703 2123 c9 -2 25 -2 35 0 9 3 1 5 -18 5 -19 0 -27 -2 -17 -5z"/>
<path d="M2947 2119 c7 -7 15 -10 18 -7 3 3 -2 9 -12 12 -14 6 -15 5 -6 -5z"/>
<path d="M3019 2109 c-14 -11 -44 -23 -67 -26 -23 -3 -39 -9 -37 -14 6 -9 109
19 113 32 2 5 7 7 11 5 4 -3 8 1 8 9 0 8 -1 15 -1 14 -1 0 -13 -9 -27 -20z"/>
<path d="M2778 2108 c6 -6 18 -8 28 -6 14 3 12 5 -9 10 -19 3 -25 2 -19 -4z"/>
<path d="M2917 2109 c7 -7 15 -10 18 -7 3 3 -2 9 -12 12 -14 6 -15 5 -6 -5z"/>
<path d="M2580 2100 c-8 -5 -12 -12 -9 -15 4 -3 12 1 19 10 14 17 11 19 -10 5z"/>
<path d="M3425 2086 c-22 -12 -64 -31 -94 -44 -30 -12 -52 -25 -49 -28 3 -2
35 9 71 25 37 17 77 33 90 36 13 4 24 13 24 21 0 8 -1 13 -1 13 -1 -1 -19 -11
-41 -23z"/>
<path d="M2703 2083 c9 -2 23 -2 30 0 6 3 -1 5 -18 5 -16 0 -22 -2 -12 -5z"/>
<path d="M2858 2083 c7 -3 16 -2 19 1 4 3 -2 6 -13 5 -11 0 -14 -3 -6 -6z"/>
<path d="M3201 2081 c-8 -5 -9 -11 -3 -15 5 -3 15 1 22 9 14 16 3 20 -19 6z"/>
<path d="M2636 2064 c-6 -15 -4 -15 11 -3 10 7 20 15 22 16 2 2 -3 3 -11 3 -9
0 -19 -7 -22 -16z"/>
<path d="M3055 2070 c-8 -13 5 -13 25 0 13 8 13 10 -2 10 -9 0 -20 -4 -23 -10z"/>
<path d="M2500 2060 c0 -5 5 -10 11 -10 5 0 7 5 4 10 -3 6 -8 10 -11 10 -2 0
-4 -4 -4 -10z"/>
<path d="M2560 2045 c0 -14 4 -25 9 -25 4 0 6 11 3 25 -2 14 -6 25 -8 25 -2 0
-4 -11 -4 -25z"/>
<path d="M3150 2060 c-9 -6 -10 -10 -3 -10 6 0 15 5 18 10 8 12 4 12 -15 0z"/>
<path d="M2991 2049 c-13 -5 -35 -10 -48 -11 -12 -1 -23 -6 -23 -10 0 -10 71
2 100 18 29 15 7 18 -29 3z"/>
<path d="M3082 2039 c-18 -9 -30 -19 -25 -21 4 -2 23 4 41 13 18 9 30 19 25
21 -4 2 -23 -4 -41 -13z"/>
<path d="M3152 2030 c-18 -17 -39 -30 -48 -30 -8 0 -13 -4 -9 -9 3 -6 17 -4
33 5 15 7 32 14 39 14 6 0 15 4 18 10 4 6 -1 7 -12 3 -17 -6 -17 -5 1 15 27
31 17 27 -22 -8z"/>
<path d="M3360 2006 c-52 -22 -96 -43 -98 -47 -2 -5 -11 -5 -20 -2 -13 4 -14
3 -3 -5 9 -7 23 -4 45 8 39 23 132 61 171 69 19 5 25 9 15 12 -8 3 -58 -12
-110 -35z"/>
<path d="M3517 2034 c-15 -8 -27 -17 -27 -20 0 -3 5 -2 11 1 6 4 22 10 37 14
14 4 22 10 17 13 -6 3 -22 0 -38 -8z"/>
<path d="M1800 2030 c20 -13 33 -13 25 0 -3 6 -14 10 -23 10 -15 0 -15 -2 -2
-10z"/>
<path d="M2258 2033 c6 -2 18 -2 25 0 6 3 1 5 -13 5 -14 0 -19 -2 -12 -5z"/>
<path d="M2803 2033 c9 -2 23 -2 30 0 6 3 -1 5 -18 5 -16 0 -22 -2 -12 -5z"/>
<path d="M1865 2020 c-16 -7 -17 -9 -3 -9 9 -1 20 4 23 9 7 11 7 11 -20 0z"/>
<path d="M2676 2014 c-11 -8 -16 -14 -10 -14 13 0 39 18 34 24 -3 2 -14 -2
-24 -10z"/>
<path d="M2888 2013 c7 -3 16 -2 19 1 4 3 -2 6 -13 5 -11 0 -14 -3 -6 -6z"/>
<path d="M3190 2005 c-19 -23 27 -37 58 -17 29 19 23 26 -12 12 -39 -14 -51
-13 -36 5 7 8 10 15 7 15 -2 0 -10 -7 -17 -15z"/>
<path d="M2318 2003 c7 -3 16 -2 19 1 4 3 -2 6 -13 5 -11 0 -14 -3 -6 -6z"/>
<path d="M2555 2000 c-3 -5 1 -10 10 -10 9 0 13 5 10 10 -3 6 -8 10 -10 10 -2
0 -7 -4 -10 -10z"/>
<path d="M2611 1994 c0 -11 3 -14 6 -6 3 7 2 16 -1 19 -3 4 -6 -2 -5 -13z"/>
<path d="M2933 1998 c15 -8 79 -7 71 2 -3 2 -23 5 -45 5 -23 1 -34 -2 -26 -7z"/>
<path d="M1958 1988 c14 -7 26 -8 32 -2 5 5 -4 10 -23 11 -30 1 -31 1 -9 -9z"/>
<path d="M2768 1993 c6 -2 18 -2 25 0 6 3 1 5 -13 5 -14 0 -19 -2 -12 -5z"/>
<path d="M3405 1978 c-53 -21 -77 -36 -35 -22 14 4 45 13 69 19 24 7 38 14 30
17 -8 3 -37 -3 -64 -14z"/>
<path d="M2005 1980 c-4 -6 3 -10 14 -10 25 0 27 6 6 13 -8 4 -17 2 -20 -3z"/>
<path d="M2056 1976 c8 -21 74 -36 74 -17 0 6 -9 8 -19 6 -11 -2 -25 3 -32 11
-15 18 -30 18 -23 0z"/>
<path d="M2435 1980 c3 -5 8 -10 11 -10 2 0 4 5 4 10 0 6 -5 10 -11 10 -5 0
-7 -4 -4 -10z"/>
<path d="M2888 1983 c6 -2 18 -2 25 0 6 3 1 5 -13 5 -14 0 -19 -2 -12 -5z"/>
<path d="M3064 1983 c15 -4 16 -7 5 -15 -11 -7 -11 -9 -1 -6 20 5 16 23 -5 25
-15 2 -15 1 1 -4z"/>
<path d="M2253 1973 c15 -2 39 -2 55 0 15 2 2 4 -28 4 -30 0 -43 -2 -27 -4z"/>
<path d="M2658 1962 c-4 -12 -2 -24 2 -27 13 -8 18 8 10 29 -6 19 -7 19 -12
-2z"/>
<path d="M3018 1973 c7 -3 16 -2 19 1 4 3 -2 6 -13 5 -11 0 -14 -3 -6 -6z"/>
<path d="M3140 1972 c-8 -4 -16 -14 -18 -22 -3 -12 0 -12 15 1 10 9 25 19 33
22 13 5 13 5 0 6 -8 0 -22 -3 -30 -7z"/>
<path d="M2920 1955 c-16 -9 -19 -14 -9 -15 8 0 24 7 35 15 24 18 7 19 -26 0z"/>
<path d="M2975 1960 c3 -5 10 -10 16 -10 5 0 9 5 9 10 0 6 -7 10 -16 10 -8 0
-12 -4 -9 -10z"/>
<path d="M2283 1953 c9 -2 23 -2 30 0 6 3 -1 5 -18 5 -16 0 -22 -2 -12 -5z"/>
<path d="M2398 1953 c6 -2 18 -2 25 0 6 3 1 5 -13 5 -14 0 -19 -2 -12 -5z"/>
<path d="M3173 1945 c-13 -7 -20 -15 -16 -18 3 -4 11 -3 17 2 6 5 20 11 31 13
15 3 16 5 5 9 -8 3 -25 0 -37 -6z"/>
<path d="M2495 1940 c-3 -5 1 -10 10 -10 9 0 13 5 10 10 -3 6 -8 10 -10 10 -2
0 -7 -4 -10 -10z"/>
<path d="M2768 1936 c-10 -7 -18 -22 -17 -32 0 -14 2 -15 6 -4 3 8 12 23 21
33 18 20 14 22 -10 3z"/>
<path d="M3298 1939 c-29 -11 -43 -35 -26 -45 7 -4 8 -3 4 4 -4 7 9 19 31 31
40 21 36 26 -9 10z"/>
<path d="M3408 1938 c-16 -5 -28 -14 -28 -18 0 -5 12 -5 28 0 15 5 34 10 41
12 13 4 13 5 0 10 -7 3 -26 1 -41 -4z"/>
<path d="M2338 1933 c7 -3 16 -2 19 1 4 3 -2 6 -13 5 -11 0 -14 -3 -6 -6z"/>
<path d="M2552 1915 c7 -16 19 -25 35 -25 21 0 24 -4 22 -27 0 -5 -8 -7 -17
-5 -13 2 -14 1 -3 -6 15 -11 53 -4 46 9 -3 4 16 10 42 12 l48 3 -52 2 c-28 1
-55 7 -58 12 -3 6 -15 10 -26 10 -17 0 -24 11 -20 33 0 4 -6 7 -14 7 -12 0
-13 -4 -3 -25z"/>
<path d="M2940 1928 c0 -7 80 -2 87 6 3 3 -16 4 -41 3 -25 -1 -46 -5 -46 -9z"/>
<path d="M3073 1926 c-41 -13 -43 -24 -3 -18 17 2 30 8 30 12 0 5 9 6 20 3 11
-3 20 -3 20 0 0 10 -37 12 -67 3z"/>
<path d="M3220 1925 c-7 -8 -16 -15 -20 -15 -4 0 -22 -13 -40 -30 -18 -16 -37
-27 -44 -23 -6 4 -5 -1 3 -10 15 -19 22 -22 19 -8 -4 11 70 71 87 71 6 0 12 7
12 15 0 8 -1 15 -2 15 -2 0 -8 -7 -15 -15z"/>
<path d="M3480 1930 c0 -5 7 -7 15 -4 8 4 15 8 15 10 0 2 -7 4 -15 4 -8 0 -15
-4 -15 -10z"/>
<path d="M2400 1916 c0 -2 8 -10 17 -17 9 -8 14 -9 10 -2 -4 6 -1 14 5 16 7 3
3 6 -9 6 -13 1 -23 -1 -23 -3z"/>
<path d="M2588 1913 c7 -3 16 -2 19 1 4 3 -2 6 -13 5 -11 0 -14 -3 -6 -6z"/>
<path d="M2858 1913 c7 -3 16 -2 19 1 4 3 -2 6 -13 5 -11 0 -14 -3 -6 -6z"/>
<path d="M2898 1913 c7 -3 16 -2 19 1 4 3 -2 6 -13 5 -11 0 -14 -3 -6 -6z"/>
<path d="M3006 1908 c3 -4 9 -8 15 -8 5 0 9 4 9 8 0 5 -7 9 -15 9 -8 0 -12 -4
-9 -9z"/>
<path d="M3324 1905 c-12 -8 -25 -11 -29 -7 -5 4 -5 1 -1 -5 6 -10 14 -9 39 3
40 21 44 24 26 24 -8 0 -24 -7 -35 -15z"/>
<path d="M2818 1903 c7 -3 16 -2 19 1 4 3 -2 6 -13 5 -11 0 -14 -3 -6 -6z"/>
<path d="M2940 1900 c8 -5 24 -10 34 -10 26 0 18 6 -19 14 -22 5 -26 4 -15 -4z"/>
<path d="M3122 1898 c-7 -7 -36 -12 -66 -12 -30 -1 -49 -4 -43 -8 7 -4 26 -7
42 -7 39 1 102 23 89 32 -6 3 -16 1 -22 -5z"/>
<path d="M2440 1896 c0 -2 7 -7 16 -10 8 -3 12 -2 9 4 -6 10 -25 14 -25 6z"/>
<path d="M2501 1881 c13 -11 26 -18 28 -16 6 6 -27 35 -39 35 -7 0 -2 -9 11
-19z"/>
<path d="M2718 1893 c7 -3 16 -2 19 1 4 3 -2 6 -13 5 -11 0 -14 -3 -6 -6z"/>
<path d="M3235 1890 c-3 -5 -15 -10 -26 -10 -10 0 -18 -5 -16 -12 1 -6 -9 -17
-21 -24 -13 -6 -19 -14 -14 -18 5 -3 21 5 34 19 14 13 35 28 48 33 14 5 19 11
12 16 -6 3 -13 2 -17 -4z"/>
<path d="M3370 1880 c8 -5 20 -10 25 -10 6 0 3 5 -5 10 -8 5 -19 10 -25 10 -5
0 -3 -5 5 -10z"/>
<path d="M2545 1870 c4 -6 11 -8 16 -5 14 9 11 15 -7 15 -8 0 -12 -5 -9 -10z"/>
<path d="M2758 1873 c7 -3 16 -2 19 1 4 3 -2 6 -13 5 -11 0 -14 -3 -6 -6z"/>
<path d="M2898 1873 c7 -3 16 -2 19 1 4 3 -2 6 -13 5 -11 0 -14 -3 -6 -6z"/>
<path d="M3287 1869 c7 -7 15 -10 18 -7 3 3 -2 9 -12 12 -14 6 -15 5 -6 -5z"/>
<path d="M2867 1859 c7 -7 15 -10 18 -7 3 3 -2 9 -12 12 -14 6 -15 5 -6 -5z"/>
<path d="M2958 1863 c17 -2 32 -8 32 -14 0 -5 14 -9 30 -9 17 0 30 -4 30 -10
0 -5 5 -10 12 -10 9 0 9 3 0 12 -16 16 -83 38 -112 36 -19 -1 -17 -2 8 -5z"/>
<path d="M3235 1855 c-16 -8 -25 -14 -20 -15 6 0 2 -7 -9 -15 -18 -13 -18 -14
2 -12 11 0 20 6 19 11 -1 6 8 15 21 21 12 5 22 13 22 17 0 5 -1 8 -2 7 -2 0
-16 -7 -33 -14z"/>
<path d="M3350 1866 c0 -2 7 -7 16 -10 8 -3 12 -2 9 4 -6 10 -25 14 -25 6z"/>
<path d="M2684 1845 c17 -9 37 -14 45 -12 10 3 7 5 -7 6 -13 0 -20 6 -17 11 4
6 -6 10 -22 10 l-28 0 29 -15z"/>
<path d="M2763 1853 c9 -2 23 -2 30 0 6 3 -1 5 -18 5 -16 0 -22 -2 -12 -5z"/>
<path d="M3330 1850 c0 -6 7 -10 15 -10 8 0 15 2 15 4 0 2 -7 6 -15 10 -8 3
-15 1 -15 -4z"/>
<path d="M3272 1835 c-18 -6 -30 -14 -26 -17 3 -4 -5 -12 -18 -19 -12 -7 -29
-20 -36 -30 -7 -10 -18 -17 -25 -15 -6 1 -7 0 -2 -3 6 -3 -12 -11 -40 -18
l-50 -12 47 4 c37 3 53 11 82 39 25 25 40 34 53 29 15 -6 13 -9 -12 -20 l-30
-14 30 6 c40 9 44 14 22 30 -20 15 -13 22 31 34 14 4 22 10 17 12 -6 3 -25 0
-43 -6z"/>
<path d="M2640 1831 c0 -6 4 -13 10 -16 6 -3 7 1 4 9 -7 18 -14 21 -14 7z"/>
<path d="M2665 1830 c3 -5 8 -10 11 -10 2 0 4 5 4 10 0 6 -5 10 -11 10 -5 0
-7 -4 -4 -10z"/>
<path d="M2838 1833 c7 -3 16 -2 19 1 4 3 -2 6 -13 5 -11 0 -14 -3 -6 -6z"/>
<path d="M2913 1833 c9 -2 25 -2 35 0 9 3 1 5 -18 5 -19 0 -27 -2 -17 -5z"/>
<path d="M3365 1825 c-54 -17 -33 -18 30 -1 28 8 41 14 30 14 -11 0 -38 -5
-60 -13z"/>
<path d="M2970 1820 c0 -6 6 -10 13 -9 6 1 23 1 37 0 18 -1 21 -4 11 -10 -7
-5 -22 -6 -34 -3 -14 4 -18 2 -13 -7 5 -7 11 -10 14 -7 3 3 10 2 16 -3 20 -15
65 -21 72 -9 4 6 3 8 -3 5 -5 -3 -23 -2 -39 3 -22 6 -24 9 -9 10 44 4 71 6 98
8 16 1 26 6 22 11 -3 6 -17 6 -36 -1 -24 -8 -42 -7 -81 6 -59 19 -68 20 -68 6z"/>
<path d="M3450 1820 c0 -5 5 -10 10 -10 6 0 10 5 10 10 0 6 -4 10 -10 10 -5 0
-10 -4 -10 -10z"/>
<path d="M3489 1828 c-11 -37 1 -48 31 -27 12 8 11 9 -5 7 -12 -2 -19 2 -17
10 2 10 -6 19 -9 10z"/>
<path d="M3545 1820 c-3 -5 1 -10 9 -10 8 0 18 5 21 10 3 6 -1 10 -9 10 -8 0
-18 -4 -21 -10z"/>
<path d="M2774 1813 c14 -4 15 -7 6 -13 -9 -6 -9 -12 -1 -29 7 -12 16 -19 21
-16 5 3 13 -3 19 -12 6 -11 11 -13 11 -5 0 7 5 10 10 7 6 -3 10 -1 10 5 0 7
-7 9 -15 6 -9 -3 -18 1 -21 9 -4 8 -14 15 -23 16 -10 0 -11 2 -3 6 21 8 14 33
-10 32 -20 -1 -20 -2 -4 -6z"/>
<path d="M2928 1813 c7 -3 16 -2 19 1 4 3 -2 6 -13 5 -11 0 -14 -3 -6 -6z"/>
<path d="M3290 1800 c0 -5 7 -7 15 -4 8 4 15 8 15 10 0 2 -7 4 -15 4 -8 0 -15
-4 -15 -10z"/>
<path d="M3374 1791 c10 -15 56 -22 74 -11 14 8 12 9 -9 4 -15 -3 -30 -1 -33
5 -4 6 -14 11 -22 11 -8 0 -13 -4 -10 -9z"/>
<path d="M3555 1790 c-3 -6 1 -7 9 -4 18 7 21 14 7 14 -6 0 -13 -4 -16 -10z"/>
<path d="M2905 1780 c-8 -13 5 -13 25 0 13 8 13 10 -2 10 -9 0 -20 -4 -23 -10z"/>
<path d="M3156 1781 c-4 -5 3 -7 14 -4 23 6 26 13 6 13 -8 0 -17 -4 -20 -9z"/>
<path d="M3344 1775 c11 -8 27 -14 35 -14 13 1 12 2 -1 6 -10 2 -18 9 -18 14
0 5 -8 9 -17 9 -16 -1 -16 -2 1 -15z"/>
<path d="M3504 1778 c-3 -4 2 -8 10 -8 8 0 17 4 20 8 3 5 -2 9 -10 9 -8 0 -17
-4 -20 -9z"/>
<path d="M3298 1771 c10 -6 6 -11 -16 -19 -17 -6 -34 -7 -38 -4 -4 4 -4 2 0
-5 4 -7 -2 -17 -13 -23 -25 -13 -38 5 -14 19 10 6 13 11 7 11 -6 0 -17 -7 -24
-15 -7 -8 -19 -15 -27 -15 -8 0 -11 -4 -8 -10 3 -5 -7 -12 -22 -16 -45 -10
-50 -12 -22 -13 15 -1 38 8 52 19 37 29 43 7 6 -24 -17 -14 -28 -26 -24 -26 4
0 30 20 58 45 35 31 65 48 91 52 36 6 37 7 21 20 -11 7 -24 13 -29 13 -6 0 -5
-4 2 -9z"/>
<path d="M3110 1760 l-25 -8 28 -1 c15 -1 27 4 27 9 0 6 -1 10 -2 9 -2 -1 -14
-5 -28 -9z"/>
<path d="M3437 1757 c-8 -5 -5 -7 8 -5 12 2 19 -2 18 -9 -2 -7 1 -13 5 -13 15
0 103 32 99 36 -2 2 -22 -2 -45 -10 -23 -8 -44 -11 -47 -6 -3 4 1 10 7 13 7 3
3 4 -10 4 -12 -1 -28 -5 -35 -10z"/>
<path d="M2930 1735 c-6 -8 -10 -20 -7 -27 4 -8 6 -7 6 5 1 9 8 17 16 17 8 0
15 5 15 10 0 15 -16 12 -30 -5z"/>
<path d="M3018 1743 c7 -3 16 -2 19 1 4 3 -2 6 -13 5 -11 0 -14 -3 -6 -6z"/>
<path d="M3321 1733 c-13 -3 -31 -11 -38 -19 -8 -8 -23 -14 -33 -14 -10 0 -20
-6 -23 -14 -4 -10 4 -9 31 4 20 10 41 16 46 13 5 -4 6 -1 3 4 -4 6 7 13 24 17
47 9 61 8 53 -6 -5 -8 -2 -9 10 -5 10 4 23 7 29 8 19 2 -36 17 -58 17 -11 -1
-31 -3 -44 -5z"/>
<path d="M3478 1713 c7 -3 16 -2 19 1 4 3 -2 6 -13 5 -11 0 -14 -3 -6 -6z"/>
<path d="M3045 1700 c28 -12 37 -12 30 0 -3 6 -16 10 -28 9 -21 0 -21 -1 -2
-9z"/>
<path d="M3416 1701 c-3 -4 6 -6 19 -3 14 2 25 6 25 8 0 8 -39 4 -44 -5z"/>
<path d="M3493 1685 c0 -8 3 -15 7 -15 11 0 7 -30 -4 -31 -6 0 0 -5 13 -10 13
-5 26 -7 29 -4 3 3 0 5 -6 5 -7 0 -12 9 -12 19 0 25 -10 51 -19 51 -4 0 -8 -7
-8 -15z"/>
<path d="M3452 1665 c13 -28 25 -33 25 -10 0 8 -4 15 -9 15 -5 0 -6 5 -3 10 3
6 -1 10 -9 10 -13 0 -14 -4 -4 -25z"/>
<path d="M2992 1671 c-8 -5 4 -8 31 -7 25 1 40 4 34 8 -16 10 -49 10 -65 -1z"/>
<path d="M3254 1672 c4 -7 2 -12 -4 -12 -6 0 -26 -15 -46 -32 -38 -34 -101
-48 -116 -25 -5 8 -8 6 -8 -6 0 -16 7 -17 55 -13 30 2 53 1 50 -4 -9 -14 21
-19 60 -10 42 9 71 30 42 30 -9 0 -17 -4 -17 -8 0 -4 -17 -9 -37 -9 -21 -1
-31 1 -23 4 20 9 44 33 31 33 -5 0 -13 -4 -16 -10 -3 -5 -14 -10 -23 -10 -13
1 -9 7 13 25 17 14 36 25 43 25 15 0 16 16 0 26 -7 4 -8 3 -4 -4z"/>
<path d="M3288 1673 c7 -3 16 -2 19 1 4 3 -2 6 -13 5 -11 0 -14 -3 -6 -6z"/>
<path d="M3370 1668 c0 -4 4 -8 9 -8 6 0 12 4 15 8 3 5 -1 9 -9 9 -8 0 -15 -4
-15 -9z"/>
<path d="M3088 1653 c7 -3 16 -2 19 1 4 3 -2 6 -13 5 -11 0 -14 -3 -6 -6z"/>
<path d="M3031 1636 c2 -2 18 -6 34 -10 22 -5 26 -4 15 4 -14 9 -59 15 -49 6z"/>
<path d="M3260 1623 c0 -15 2 -15 9 -4 6 10 20 12 47 8 27 -4 34 -3 24 3 -8 5
-30 10 -47 10 -25 0 -33 -4 -33 -17z"/>
<path d="M3108 1613 c7 -3 16 -2 19 1 4 3 -2 6 -13 5 -11 0 -14 -3 -6 -6z"/>
<path d="M3300 1570 c0 -5 5 -10 11 -10 5 0 7 5 4 10 -3 6 -8 10 -11 10 -2 0
-4 -4 -4 -10z"/>
<path d="M3420 1534 c0 -8 5 -12 10 -9 6 4 8 11 5 16 -9 14 -15 11 -15 -7z"/>
<path d="M3295 1520 c3 -5 11 -10 16 -10 6 0 7 5 4 10 -3 6 -11 10 -16 10 -6
0 -7 -4 -4 -10z"/>
<path d="M3198 1463 c7 -3 16 -2 19 1 4 3 -2 6 -13 5 -11 0 -14 -3 -6 -6z"/>
<path d="M3170 1433 c-20 -8 -44 -33 -37 -39 6 -6 43 14 65 34 11 10 11 12 0
11 -7 0 -20 -3 -28 -6z"/>
<path d="M1500 1175 l-85 -85 -417 0 c-316 0 -423 3 -438 12 -24 16 -55 0 -55
-27 0 -27 31 -43 55 -27 15 9 122 12 438 12 l417 0 90 90 90 90 279 0 279 0
234 -135 234 -135 107 0 107 0 -95 -55 -95 -55 -797 0 c-590 0 -804 3 -823 12
-33 15 -61 -8 -50 -41 7 -22 48 -30 60 -11 4 7 284 10 808 10 l801 0 123 70
123 70 458 0 458 0 29 -30 29 -30 278 0 c204 0 284 -3 298 -12 24 -16 55 0 55
27 0 27 -31 43 -55 27 -14 -9 -93 -12 -294 -12 -231 0 -275 2 -286 15 -11 13
5 15 139 15 128 0 151 2 151 15 0 13 -25 15 -168 15 l-168 0 -54 55 -54 55
-314 0 -313 0 -95 -55 -96 -55 -133 0 -133 0 -225 130 -226 130 -293 0 -293 0
-85 -85z m2235 -135 l39 -40 -414 0 c-227 0 -411 2 -409 4 2 2 31 20 64 40
l60 35 310 1 311 0 39 -40z"/>
<path d="M4219 838 c-9 -10 -105 -12 -430 -10 l-418 2 -235 -135 -235 -135
-278 0 -278 0 -90 90 -90 90 -439 -2 c-341 -2 -440 -6 -444 -16 -3 -9 88 -12
435 -12 l438 0 85 -85 85 -85 298 0 298 0 224 130 225 130 415 0 c297 0 421
-3 434 -12 35 -22 77 16 51 47 -15 18 -35 19 -51 3z"/>
<path d="M4405 650 c-4 -6 -209 -10 -582 -10 l-576 0 -122 -70 -122 -70 -145
0 -144 0 -122 -70 -122 -70 -222 0 -222 0 -92 90 -91 90 -262 0 c-225 0 -261
-2 -261 -15 0 -13 35 -15 258 -15 l257 0 90 -90 90 -90 200 0 200 0 -75 -45
-75 -45 -305 0 -305 0 -85 85 -85 85 -280 0 c-189 0 -285 4 -292 11 -6 6 -21
9 -34 7 -18 -2 -24 -9 -24 -27 0 -34 29 -50 53 -28 17 15 48 17 288 17 l269 0
85 -85 85 -85 323 0 323 0 95 55 96 55 144 0 144 0 123 70 123 70 667 0 c585
0 667 2 667 15 0 13 -80 15 -637 17 l-638 3 91 53 91 52 572 0 c415 0 576 -3
590 -12 35 -22 77 16 51 47 -14 17 -46 20 -55 5z m-1465 -184 c0 -2 -41 -27
-90 -55 l-91 -52 -114 3 -115 3 93 52 92 53 113 0 c61 0 112 -2 112 -4z"/>
</g>
</svg>
